<?xml version="1.0" standalone="no"?>
<!DOCTYPE svg PUBLIC "-//W3C//DTD SVG 20010904//EN"
 "http://www.w3.org/TR/2001/REC-SVG-20010904/DTD/svg10.dtd">
<svg version="1.0" xmlns="http://www.w3.org/2000/svg"
 width="800.000000pt" height="800.000000pt" viewBox="0 0 800.000000 800.000000"
 preserveAspectRatio="xMidYMid meet">
<metadata>
Created by potrace 1.16, written by Peter Selinger 2001-2019
</metadata>
<g transform="translate(0.000000,800.000000) scale(0.100000,-0.100000)"
fill="#000000" stroke="none">
<path d="M3800 7745 c-389 -62 -548 -126 -784 -315 -126 -102 -206 -227 -240
-377 -22 -98 -20 -247 4 -353 11 -47 20 -103 20 -125 0 -22 7 -68 15 -103 13
-56 13 -67 -1 -100 -23 -55 -10 -126 45 -245 93 -202 157 -294 219 -317 22 -9
43 -18 47 -21 3 -4 1 -26 -5 -50 -5 -24 -13 -66 -17 -94 l-7 -50 -5 40 c-6 38
-8 40 -51 48 -42 8 -46 7 -67 -19 -13 -16 -23 -33 -23 -37 0 -18 -107 -224
-154 -296 -16 -25 -34 -58 -41 -75 -8 -17 -22 -40 -33 -52 -24 -25 -33 -146
-14 -181 7 -12 12 -31 12 -42 0 -11 6 -24 14 -28 8 -4 14 -10 14 -13 0 -3 5
-23 11 -45 11 -39 10 -41 -24 -73 -39 -37 -52 -37 -202 -6 -41 8 -91 14 -111
12 -29 -2 -10 -10 93 -36 72 -17 141 -32 154 -32 12 0 36 12 53 28 17 15 38
34 48 42 9 8 29 26 45 40 23 21 27 22 21 6 -3 -10 -2 -24 3 -30 5 -6 11 -22
13 -36 2 -14 9 -24 16 -22 8 1 11 -2 7 -8 -7 -12 20 -42 29 -32 4 3 4 -1 1
-10 -4 -11 0 -18 13 -22 14 -5 18 -13 14 -31 -3 -19 -1 -24 10 -20 9 4 28 -6
46 -24 17 -17 35 -31 40 -31 5 0 17 -16 28 -35 10 -19 22 -35 25 -35 4 0 10
-14 14 -31 4 -18 16 -34 28 -39 12 -5 19 -9 14 -9 -11 -1 17 -52 48 -86 l28
-29 9 24 c6 16 5 26 -1 28 -5 2 -7 10 -4 19 4 9 2 14 -3 11 -5 -4 -10 7 -11
23 -4 67 -6 79 -14 79 -5 0 -8 16 -6 35 3 19 1 35 -4 35 -4 0 -6 16 -5 35 2
19 -1 35 -6 35 -5 0 -6 6 -2 12 5 7 9 19 10 28 8 47 24 81 24 48 0 -18 150
-312 186 -366 13 -19 24 -38 24 -41 0 -11 98 -61 121 -61 12 0 30 -7 40 -16
10 -9 29 -17 43 -18 14 0 26 -5 26 -9 0 -5 5 -5 10 -2 17 11 11 -11 -9 -29
-16 -14 -20 -15 -30 -2 -7 8 -36 22 -65 30 -58 17 -212 9 -341 -17 -38 -8
-110 -20 -160 -27 -99 -14 -283 -82 -397 -149 l-63 -37 -50 71 c-27 38 -100
151 -161 250 -62 99 -131 210 -154 248 -41 66 -56 76 -94 61 -26 -10 -19 -26
45 -94 33 -36 74 -90 91 -120 35 -61 234 -358 274 -407 l25 -31 -123 -105
c-68 -58 -161 -133 -206 -167 -46 -34 -103 -78 -125 -99 -23 -21 -57 -46 -74
-55 -42 -21 -61 -58 -73 -143 -11 -78 2 -302 25 -434 8 -46 15 -140 15 -208 0
-139 12 -229 41 -310 20 -53 20 -55 1 -73 -18 -19 -19 -18 -31 54 -7 40 -19
107 -26 148 -8 41 -22 143 -30 225 -9 83 -23 181 -31 218 -8 38 -14 86 -14
108 0 26 -4 39 -14 39 -16 0 -29 -51 -16 -64 7 -7 -6 -53 -20 -66 -3 -3 -6
-20 -8 -38 -3 -43 -24 -64 -65 -66 -18 0 -40 -10 -50 -21 -16 -17 -18 -17 -13
-2 6 19 -4 23 -21 6 -7 -7 -16 -3 -31 15 -19 24 -40 37 -28 17 4 -5 -7 -12
-24 -16 -16 -4 -30 -12 -30 -19 0 -6 -27 -20 -60 -29 -33 -10 -60 -23 -60 -29
0 -6 -11 -8 -25 -6 -14 3 -25 1 -25 -3 0 -5 -7 -9 -15 -9 -8 0 -15 -6 -15 -13
0 -8 -20 -13 -59 -15 -55 -3 -60 -1 -87 29 -115 127 -138 136 -175 70 -12 -22
-31 -42 -43 -46 -14 -4 -17 -8 -8 -12 10 -4 10 -8 1 -19 -9 -11 -9 -14 1 -14
10 0 10 -3 0 -15 -7 -8 -9 -15 -4 -15 5 0 2 -5 -6 -10 -13 -9 -13 -11 0 -20 8
-5 10 -10 4 -10 -6 0 -23 9 -38 21 l-26 20 -10 -26 c-5 -14 -10 -29 -10 -33 0
-4 -20 -48 -45 -98 -34 -67 -62 -107 -105 -149 -33 -31 -60 -61 -60 -66 0 -5
-5 -9 -11 -9 -6 0 -17 -7 -25 -15 -20 -19 -44 -19 -44 0 0 8 -6 12 -14 9 -17
-7 -58 44 -52 65 3 9 -6 43 -19 76 -13 33 -24 54 -24 48 -1 -7 -14 -13 -29
-13 -15 0 -33 -5 -40 -12 -7 -7 -12 -8 -12 -4 0 5 -7 3 -15 -4 -13 -11 -19 -8
-40 14 -13 15 -25 30 -25 34 -1 4 -8 22 -17 40 -17 37 -32 32 -59 -20 -10 -19
-22 -28 -38 -28 -13 0 -29 -7 -36 -15 -7 -8 -19 -15 -26 -15 -8 0 -14 -6 -14
-14 0 -7 -7 -19 -15 -26 -10 -8 -15 -9 -15 -2 0 6 -7 9 -15 6 -8 -4 -12 -11
-8 -17 3 -6 1 -7 -5 -3 -19 11 -52 -16 -79 -67 -15 -26 -28 -45 -31 -42 -10
10 43 114 97 190 78 109 80 115 38 78 -21 -18 -45 -33 -53 -33 -8 0 -12 -4 -9
-10 3 -5 2 -10 -2 -10 -5 0 -26 -15 -46 -33 l-36 -34 -1 -1286 0 -1287 4000 0
4000 0 0 1031 c0 1029 0 1032 -21 1065 -23 39 -72 71 -68 47 1 -5 0 -10 -1
-13 -1 -3 -3 -21 -6 -40 -9 -89 -10 -140 -4 -188 7 -59 4 -63 -54 -82 -33 -11
-41 -10 -50 2 -6 7 -27 21 -46 30 -36 18 -93 81 -93 104 0 8 -9 16 -20 20 -10
3 -23 19 -29 35 -5 16 -14 29 -20 29 -6 0 -8 6 -5 14 3 8 -5 22 -19 32 -22 17
-24 26 -24 96 l0 78 -52 2 c-29 1 -91 2 -138 2 l-85 1 -3 33 c-3 31 -5 32 -48
32 -44 0 -44 0 -44 -35 l0 -35 -85 0 c-80 0 -85 -1 -85 -21 0 -21 -1 -21 -34
4 -18 15 -37 23 -40 19 -4 -3 -4 1 -1 10 8 21 -6 29 -55 30 -27 0 -40 5 -40
14 0 11 -28 14 -140 14 l-140 0 0 29 c0 27 12 37 140 116 99 62 140 93 140
106 0 11 -2 19 -4 19 -3 0 -61 -36 -130 -80 -153 -98 -151 -97 -154 -65 -6 73
-59 119 -137 119 -101 0 -144 -60 -145 -201 l0 -83 283 0 c156 0 286 -2 289
-5 9 -9 -16 -55 -29 -55 -11 0 -20 -52 -14 -84 1 -5 -7 -15 -19 -23 -11 -8
-20 -20 -20 -27 0 -17 -46 -56 -66 -56 -23 0 -84 64 -84 89 0 16 -8 23 -30 28
-26 5 -30 10 -30 39 0 27 -4 34 -19 34 -14 0 -20 -10 -25 -40 -7 -45 -8 -45
-39 -26 -12 7 -50 19 -85 26 -34 7 -66 19 -70 27 -5 8 -26 15 -53 15 -24 1
-47 6 -51 12 -4 6 -12 5 -22 -3 -10 -9 -20 -10 -32 -3 -23 13 -118 -43 -110
-64 3 -8 0 -14 -7 -14 -20 0 -39 -51 -25 -67 9 -11 7 -15 -9 -19 -14 -4 -19
-12 -16 -25 5 -16 0 -19 -30 -19 -20 0 -39 -4 -42 -10 -3 -5 -13 -10 -22 -10
-9 0 -27 -10 -40 -22 -20 -19 -25 -20 -33 -8 -7 12 -26 -2 -89 -69 l-80 -83
-61 4 c-38 3 -67 10 -77 21 -20 19 -60 144 -69 212 l-7 50 23 -20 c12 -11 28
-32 34 -46 16 -38 87 -114 125 -133 21 -11 31 -23 27 -32 -12 -31 19 -11 88
56 40 39 79 70 88 70 15 0 38 59 38 98 0 11 9 44 19 74 11 29 31 96 45 148 37
138 130 471 160 574 27 92 36 166 10 86 -8 -25 -23 -56 -34 -69 -17 -19 -23
-21 -35 -11 -19 15 -47 -4 -43 -29 2 -13 -7 -16 -47 -18 -47 -1 -48 -1 -12 6
20 4 41 12 45 16 4 4 -4 5 -18 2 -14 -4 -43 -7 -65 -8 -33 0 -36 -2 -20 -10
17 -8 17 -9 -5 -4 -14 2 -31 5 -37 5 -7 0 -13 7 -13 15 0 8 -13 21 -29 30 -33
17 -55 43 -28 32 9 -3 19 -2 23 4 8 14 29 6 29 -12 0 -24 46 -40 98 -35 73 8
153 68 163 123 7 36 13 40 32 21 22 -22 14 71 -10 111 -25 43 -78 101 -92 101
-5 0 -17 6 -25 14 -25 21 -110 46 -155 46 -23 -1 -66 -9 -96 -20 -72 -25 -93
-25 -52 1 17 12 32 25 32 29 0 5 9 12 20 15 11 3 20 11 20 17 0 5 -6 8 -12 5
-7 -2 -33 14 -58 37 -25 23 -76 59 -114 80 -38 21 -118 76 -177 121 -108 81
-239 155 -276 155 -10 0 -50 13 -89 30 -123 51 -248 80 -389 90 -166 11 -199
18 -184 36 6 8 16 14 21 14 5 0 16 7 24 15 9 8 12 15 8 15 -4 0 2 8 12 17 27
25 47 59 74 128 12 33 36 83 52 112 16 28 27 55 26 60 -1 4 3 18 10 30 11 20
20 52 21 82 1 9 9 11 27 7 20 -5 24 -3 22 11 -2 13 4 18 22 18 14 0 30 3 35 6
6 3 22 9 38 13 15 3 27 11 27 16 0 6 6 10 14 10 7 0 19 7 26 15 7 8 24 15 39
15 32 0 94 37 86 50 -3 6 1 10 10 10 8 0 18 7 21 15 4 8 15 15 25 15 11 0 23
8 27 18 4 9 14 17 22 17 10 0 14 9 13 25 -1 14 1 19 4 12 4 -11 9 -10 22 3 9
9 25 22 35 29 19 13 19 15 3 30 -24 24 -21 32 13 48 18 8 30 21 31 33 1 19 5
63 12 115 2 14 0 34 -4 45 -8 24 14 60 30 50 17 -10 13 11 -4 25 -11 9 -12 17
-4 32 7 14 7 23 -1 34 -7 7 -10 23 -7 34 3 11 -3 30 -14 44 -10 13 -16 31 -13
39 3 8 1 17 -4 21 -5 3 -8 30 -7 61 2 41 -2 60 -16 76 -12 14 -17 30 -13 45 4
17 -1 27 -21 40 -18 12 -23 20 -16 27 14 14 14 30 1 22 -5 -3 -10 -1 -10 6 0
6 -13 27 -30 46 -16 18 -30 41 -30 50 0 9 -6 24 -14 32 -7 9 -21 41 -29 71
l-16 54 50 51 c63 63 129 146 129 162 0 6 -10 19 -22 28 -16 12 -19 19 -10 22
6 3 12 9 12 14 0 6 -4 7 -10 4 -5 -3 -10 0 -10 8 0 7 -13 26 -30 40 -16 15
-30 36 -30 47 0 12 -9 33 -20 48 -11 15 -26 55 -34 89 l-14 63 44 19 c80 36
103 108 88 273 -5 57 -5 102 0 111 11 16 -1 70 -13 63 -5 -3 -14 7 -21 23 -18
44 -56 75 -93 74 -36 0 -300 -65 -354 -88 -42 -18 -43 -18 -43 -6 0 13 61 35
168 61 62 15 92 27 92 37 0 21 -38 91 -88 163 -25 36 -75 109 -111 162 -70
103 -264 311 -328 351 -140 88 -271 141 -386 157 -92 12 -88 12 -197 -5z m348
-96 c14 7 27 5 51 -10 17 -10 36 -19 42 -19 6 0 23 -9 37 -19 15 -10 30 -19
35 -20 18 -2 64 -31 86 -55 14 -14 30 -26 38 -26 7 0 13 -7 13 -15 0 -8 5 -15
10 -15 6 0 10 -7 10 -16 0 -8 4 -13 9 -9 5 3 27 -13 48 -35 61 -66 68 -76 111
-165 13 -27 30 -53 38 -58 7 -4 11 -14 7 -23 -3 -9 0 -14 8 -12 8 2 13 -3 11
-10 -1 -7 9 -24 23 -38 14 -14 25 -34 25 -44 0 -11 5 -20 11 -20 5 0 7 -5 4
-10 -4 -6 -12 -10 -18 -9 -32 4 -47 -2 -47 -20 0 -11 -4 -23 -10 -26 -5 -3
-10 -1 -10 6 0 10 -3 10 -12 1 -7 -7 -20 -12 -29 -12 -9 0 -20 -7 -23 -16 -5
-13 -15 -15 -51 -10 -36 6 -45 4 -45 -8 0 -8 -13 -17 -30 -21 -32 -7 -70 1
-70 15 0 4 -9 6 -20 3 -11 -3 -17 -10 -14 -15 3 -5 12 -7 20 -4 9 3 14 -1 14
-14 0 -17 -2 -17 -29 -4 -20 10 -46 13 -78 10 -41 -5 -46 -4 -31 7 12 10 16
22 12 43 -5 28 -5 28 13 8 12 -14 24 -19 37 -14 17 6 16 8 -8 23 -15 10 -24
22 -21 27 4 6 -4 10 -16 10 -18 0 -19 2 -9 15 10 12 8 16 -13 24 -18 7 -24 15
-20 29 7 27 -14 37 -36 18 -32 -29 -31 -16 2 16 28 27 29 30 9 25 -14 -3 -26
1 -35 12 -13 19 -45 35 -64 32 -6 -1 -14 3 -18 8 -3 6 -11 9 -18 7 -7 -1 -9
-1 -4 1 13 8 8 23 -8 23 -8 0 -15 -5 -15 -10 0 -6 -13 -4 -31 5 -17 9 -28 22
-26 29 5 12 0 14 -40 17 -40 3 -61 49 -23 49 26 0 26 12 0 28 -17 10 -18 16
-10 32 6 12 7 19 1 18 -10 -3 -45 18 -73 45 -10 9 -18 12 -18 6 0 -5 -5 -7
-11 -4 -6 4 -8 13 -5 20 3 8 0 16 -7 19 -7 2 0 5 14 5 16 1 30 10 38 25 8 13
23 29 35 35 17 10 18 11 2 6 -19 -6 -19 -5 -3 13 18 20 23 47 7 37 -5 -3 -10
-1 -10 5 0 7 6 10 14 7 8 -3 27 -2 43 3 l28 8 -30 2 -30 1 30 13 c18 8 32 9
36 3 4 -6 9 -5 13 1 3 6 15 8 26 5 11 -3 20 -1 20 5 0 7 11 7 35 1 22 -6 41
-6 53 0z m512 -1181 c14 -18 42 -52 63 -77 41 -47 61 -87 52 -102 -13 -21 -56
-3 -87 36 -18 22 -38 43 -44 48 -16 9 -74 110 -74 127 0 24 64 2 90 -32z
m-1279 -2638 c10 -27 83 -80 113 -80 6 0 22 -6 36 -13 27 -14 120 -39 210 -57
38 -7 56 -8 58 0 2 5 8 8 13 4 22 -13 108 -5 148 16 24 11 50 19 59 17 13 -4
12 -5 -4 -6 -36 -2 -72 -39 -89 -92 -19 -57 -15 -86 19 -126 l24 -29 -30 -13
c-43 -19 -65 -96 -44 -160 5 -15 5 -21 -2 -17 -16 10 -52 -76 -52 -123 0 -24
-7 -58 -16 -77 -22 -46 -29 -37 -9 10 17 40 13 95 -10 131 -21 36 -25 96 -9
152 14 49 14 57 -2 99 -20 51 -55 81 -103 86 -30 3 -36 8 -48 43 -27 79 -87
115 -194 115 -61 0 -211 -16 -241 -26 -12 -3 12 31 58 85 43 50 84 91 92 91 7
0 18 -13 23 -30z m260 -1230 c29 -8 41 -19 57 -53 16 -36 64 -212 87 -324 13
-66 25 -30 25 77 0 67 4 110 10 110 6 0 10 -11 10 -25 0 -17 4 -23 14 -19 29
11 126 -54 126 -84 0 -11 3 -12 14 -3 8 7 22 8 37 3 l23 -9 -26 -6 c-39 -10
-34 -53 7 -62 29 -7 30 -7 7 -17 -16 -8 -29 -8 -48 1 -35 15 -41 8 -15 -18 23
-23 52 -27 81 -11 15 8 17 6 13 -9 -3 -10 0 -22 6 -25 6 -4 11 0 11 8 0 31 32
96 49 97 10 0 11 2 4 6 -18 7 -16 23 2 23 9 0 12 6 9 15 -4 8 -1 15 5 15 6 0
8 6 5 14 -3 8 -1 17 5 20 6 4 8 13 4 21 -3 8 -1 15 3 15 5 0 10 12 11 26 0 15
7 30 13 34 7 4 9 13 6 19 -4 6 -1 11 8 11 10 0 13 6 10 15 -4 9 0 15 10 15 10
0 13 6 10 15 -4 9 0 15 10 15 9 0 16 5 16 10 0 6 7 10 15 10 8 0 15 5 15 10 0
6 14 4 34 -4 25 -11 36 -11 39 -3 2 7 30 -2 79 -26 41 -21 82 -35 90 -32 9 4
19 1 24 -6 5 -9 2 -10 -12 -6 -12 5 -9 -1 9 -14 15 -11 27 -25 27 -30 0 -15
-74 -122 -169 -244 -86 -111 -223 -307 -233 -335 -3 -8 -44 -72 -91 -141 -47
-70 -84 -129 -82 -131 2 -2 -5 -14 -17 -28 -17 -22 -19 -22 -15 -5 3 11 8 29
13 40 7 18 6 19 -9 6 -25 -20 -40 -3 -164 183 -133 200 -202 291 -340 452
-133 156 -173 205 -173 213 0 13 94 77 189 127 110 59 104 57 152 44z m2818
-74 c37 -20 51 -55 51 -131 l0 -65 -105 0 -105 0 0 68 c1 37 7 78 14 91 26 48
91 64 145 37z m-4461 -489 c6 -38 21 -93 33 -123 22 -52 39 -70 39 -39 0 8 4
15 9 15 5 0 13 9 16 20 3 11 12 26 19 32 6 7 23 31 36 52 25 42 38 35 22 -12
-6 -18 -4 -62 7 -139 16 -108 31 -156 31 -97 0 55 113 144 183 144 31 0 37 15
37 91 0 95 17 68 25 -38 7 -108 -6 -242 -29 -298 -26 -62 -94 -75 -162 -30
-30 20 -31 19 -38 -11 -5 -20 -12 -25 -26 -21 -19 5 -19 3 -4 -32 8 -20 26
-55 40 -78 13 -23 24 -47 24 -54 0 -24 -29 13 -80 104 -29 51 -67 112 -85 137
-45 62 -73 119 -85 177 -18 77 -48 250 -60 346 -11 81 -11 90 6 109 19 20 19
18 26 -83 3 -57 11 -135 16 -172z m5442 103 c0 -11 -4 -20 -10 -20 -5 0 -10
-9 -10 -19 0 -11 -5 -21 -11 -23 -15 -5 -22 -65 -9 -73 5 -3 7 -12 3 -20 -3
-8 0 -15 6 -15 18 0 12 -29 -8 -40 -36 -19 -86 -12 -111 15 -21 22 -25 38 -28
120 l-4 95 91 0 c84 0 91 -1 91 -20z m-2805 -85 c14 -3 25 -12 25 -20 0 -18
11 -19 29 -2 20 18 4 -12 -22 -40 -22 -24 -15 -52 9 -32 11 9 15 8 20 -5 3 -9
17 -16 31 -16 17 0 27 -7 30 -21 5 -17 11 -20 34 -15 16 3 29 2 29 -3 0 -15
35 -46 55 -49 59 -10 81 -15 93 -25 7 -5 15 -7 19 -4 9 9 44 -13 38 -24 -4 -5
-1 -9 4 -9 6 0 11 -9 11 -21 0 -12 5 -19 12 -17 16 6 43 -21 43 -41 0 -10 8
-15 18 -13 11 2 17 -4 17 -18 0 -13 7 -20 20 -20 12 0 20 -6 18 -12 -1 -7 3
-22 9 -34 7 -11 13 -40 14 -63 2 -23 6 -44 10 -47 9 -5 0 -103 -11 -124 -5 -9
-11 -36 -15 -60 -4 -24 -11 -52 -16 -62 -6 -10 -5 -19 1 -23 6 -3 6 -15 0 -29
-10 -28 -4 -94 12 -113 6 -7 7 -13 3 -13 -5 0 0 -8 9 -19 18 -19 18 -40 1 -54
-7 -6 -7 -10 0 -13 33 -14 39 -23 27 -37 -10 -12 -9 -16 3 -21 9 -3 13 -11 10
-17 -4 -5 1 -17 11 -24 17 -13 17 -16 4 -25 -13 -9 -13 -11 0 -20 8 -5 15 -13
15 -17 1 -4 4 -25 8 -46 7 -33 11 -37 30 -31 21 6 21 6 4 -13 -9 -11 -14 -23
-11 -26 4 -4 -1 -9 -10 -13 -10 -4 -14 -13 -11 -24 3 -11 0 -20 -10 -24 -23
-8 -19 -46 4 -46 11 0 23 5 26 10 3 6 11 10 16 10 6 0 8 -4 4 -9 -3 -5 2 -11
12 -13 11 -2 1 -11 -28 -26 -25 -13 -50 -32 -57 -42 -11 -18 -9 -20 10 -21 17
0 19 -2 8 -7 -36 -16 -80 -57 -80 -74 0 -15 -5 -17 -25 -12 -18 4 -25 2 -25
-8 0 -8 -9 -25 -20 -38 -24 -27 -55 -21 -45 10 5 16 2 20 -16 20 -19 0 -20 -2
-8 -17 12 -15 12 -16 -4 -10 -13 5 -20 0 -27 -18 -5 -14 -12 -25 -15 -25 -4 0
-3 5 0 10 3 6 -1 10 -10 10 -9 0 -13 -4 -10 -10 3 -6 -5 -10 -19 -10 -14 0
-29 8 -35 17 -7 14 -13 15 -33 6 l-23 -12 23 0 c13 -1 20 -5 17 -11 -4 -7 -28
-8 -66 -4 -40 4 -63 3 -73 -6 -9 -6 -20 -9 -26 -5 -6 4 -17 2 -25 -5 -12 -10
-81 -16 -147 -12 -21 2 -26 6 -21 18 5 14 1 15 -25 9 -31 -6 -70 7 -84 29 -5
8 -11 7 -20 -2 -14 -14 -98 -17 -98 -3 0 5 -18 0 -40 -10 -23 -11 -46 -17 -52
-13 -7 4 -8 3 -4 -4 5 -8 -4 -12 -28 -12 -22 0 -38 -6 -44 -16 -6 -11 -17 -15
-31 -11 -14 3 -21 0 -21 -9 0 -8 -4 -14 -10 -14 -5 0 -10 6 -10 13 0 102 -47
407 -81 527 -12 41 -23 91 -25 111 -2 19 -8 58 -14 85 -6 27 -10 108 -9 179 1
72 -1 147 -6 168 -5 25 -3 42 5 52 6 8 9 19 5 25 -3 5 1 13 10 16 12 5 15 15
11 38 -4 20 -3 25 2 12 8 -17 9 -17 23 5 8 13 25 45 38 72 13 26 30 47 37 47
6 0 26 24 42 53 19 32 80 99 160 175 144 137 188 172 213 172 10 0 19 3 21 8
2 4 17 14 33 23 28 16 40 16 100 4z m-1540 -115 c11 -5 14 -9 6 -9 -11 -1 -11
-4 -1 -15 6 -8 18 -12 26 -9 15 5 53 -33 54 -54 0 -7 6 -13 13 -13 7 0 24 -15
37 -32 13 -18 29 -37 37 -41 7 -4 13 -14 13 -21 0 -8 24 -34 53 -59 28 -26 73
-66 98 -90 27 -25 70 -52 105 -66 32 -12 73 -33 91 -47 17 -13 36 -24 42 -24
6 0 15 -9 21 -20 6 -11 15 -20 20 -20 13 0 160 -107 183 -132 10 -12 17 -36
17 -60 0 -33 -8 -50 -42 -90 l-42 -51 22 -17 c12 -10 22 -23 22 -29 0 -6 4
-11 9 -11 22 0 20 -34 -4 -62 -14 -16 -25 -38 -25 -48 0 -10 -15 -33 -34 -51
-35 -35 -58 -99 -36 -99 8 0 10 -9 6 -24 -7 -27 23 -63 32 -37 7 22 77 -62 80
-95 1 -16 7 -39 13 -51 7 -12 8 -29 4 -40 -5 -10 -8 -21 -7 -25 2 -10 -29 -17
-58 -14 -14 2 -40 4 -58 5 -23 1 -43 11 -63 30 -16 16 -29 25 -29 20 0 -5 -7
-9 -15 -9 -8 0 -15 6 -15 13 0 9 -18 13 -57 15 -31 1 -60 8 -64 14 -4 6 -18
13 -31 14 -12 1 -36 6 -52 10 -21 5 -27 4 -22 -5 4 -6 1 -11 -9 -11 -9 0 -13
5 -10 10 3 6 -1 10 -9 10 -9 0 -16 -7 -16 -15 0 -20 -10 -19 -26 3 -13 16 -15
16 -28 -1 -8 -10 -17 -14 -20 -8 -3 5 0 12 6 14 17 7 -12 29 -29 22 -7 -2 -10
2 -6 11 3 7 0 14 -7 14 -6 0 -8 5 -5 10 3 6 -1 13 -9 16 -9 3 -16 12 -16 20 0
16 -30 33 -48 27 -7 -3 -24 7 -37 22 -26 27 -32 45 -15 45 6 0 10 7 10 15 0 9
-9 15 -24 15 -26 0 -49 41 -27 48 6 2 11 8 11 14 0 6 -7 7 -16 4 -24 -9 -34 2
-24 28 5 15 5 27 -2 34 -8 8 -4 14 16 22 15 5 25 14 21 20 -3 5 -12 7 -19 4
-20 -8 -28 58 -9 69 11 7 12 12 2 23 -6 8 -8 14 -4 14 4 0 3 6 -2 13 -5 6 -10
22 -11 35 -1 19 3 21 26 17 21 -4 20 -2 -5 7 -31 10 -45 28 -23 28 6 0 10 11
10 25 0 14 -4 25 -10 25 -5 0 -7 -7 -4 -15 4 -10 0 -15 -11 -15 -11 0 -15 5
-11 16 3 9 -5 26 -19 42 -14 15 -25 30 -25 34 0 5 -7 8 -16 8 -8 0 -13 4 -10
8 7 12 -63 44 -76 36 -6 -4 -9 -1 -6 7 3 8 15 13 28 11 15 -3 20 0 15 8 -4 7
-17 9 -30 6 -30 -8 -41 9 -18 24 13 8 14 13 6 16 -7 3 -13 12 -13 19 0 7 -5
15 -11 17 -9 3 -15 21 -18 51 -1 4 -9 8 -18 8 -16 1 -16 2 -2 6 20 5 14 43 -7
43 -8 0 -14 5 -14 10 0 6 5 10 11 10 6 0 9 9 6 19 -3 14 -1 18 9 14 16 -6 19
13 4 22 -8 5 -8 11 0 20 6 7 8 19 5 27 -4 9 7 28 25 47 24 23 29 35 21 44 -7
9 -6 21 4 40 10 19 10 25 2 20 -9 -5 -9 -3 0 9 7 8 10 18 6 21 -3 4 2 10 12
14 10 3 27 15 37 25 9 9 24 15 31 12 8 -3 17 2 20 10 7 17 49 20 82 6z m-1905
-1410 l0 -130 -495 0 -495 0 0 130 0 130 495 0 495 0 0 -130z"/>
<path d="M360 530 c0 -110 0 -110 24 -110 44 0 56 24 56 114 0 90 -8 106 -52
106 l-28 0 0 -110z"/>
<path d="M830 621 c-11 -21 -14 -132 -4 -168 7 -27 40 -39 59 -23 19 16 21
180 3 198 -18 18 -46 14 -58 -7z"/>
<path d="M1057 4673 c-3 -5 -8 -55 -9 -109 -3 -92 -1 -103 26 -155 16 -31 26
-64 23 -72 -3 -9 -24 -25 -47 -37 -22 -11 -40 -23 -40 -26 0 -3 9 -17 20 -31
l19 -25 30 29 c42 43 55 97 36 159 -8 27 -15 64 -15 82 0 17 -4 32 -10 32 -6
0 -10 28 -11 63 0 65 -11 108 -22 90z"/>
<path d="M6460 4424 c-30 -8 -72 -27 -93 -41 -80 -56 -107 -126 -107 -280 l0
-103 284 0 284 0 -5 128 c-4 102 -9 136 -27 171 -50 104 -206 162 -336 125z
m211 -51 c35 -18 64 -43 84 -71 28 -41 30 -50 33 -158 l4 -114 -246 0 -246 0
0 104 c0 58 5 117 11 133 44 117 230 171 360 106z"/>
<path d="M7170 4411 c0 -31 0 -31 -54 -31 -29 0 -68 -3 -85 -6 -30 -6 -31 -9
-31 -55 l0 -49 85 0 85 0 0 -57 -1 -58 -84 -58 -85 -58 0 -60 c0 -46 3 -58 13
-52 6 4 48 31 92 61 71 47 81 51 90 36 57 -97 148 -128 243 -83 26 13 54 38
70 62 27 40 27 43 27 206 l0 166 -135 5 -135 5 0 25 c0 23 -4 25 -47 28 -47 3
-48 3 -48 -27z m268 -242 c-3 -92 -5 -103 -27 -120 -32 -26 -92 -25 -117 2
-15 17 -20 41 -24 120 l-5 99 88 0 89 0 -4 -101z"/>
<path d="M800 4271 c0 -5 9 -13 20 -16 11 -3 20 -11 20 -16 0 -9 -17 -7 -57 8
-7 3 -13 -2 -13 -11 0 -9 5 -16 10 -16 6 0 10 -7 10 -15 0 -8 -4 -15 -10 -15
-5 0 -10 -7 -10 -15 0 -8 5 -15 10 -15 16 0 12 -17 -5 -24 -11 -4 -15 0 -13
11 2 11 -5 19 -17 21 -17 4 -18 2 -6 -12 7 -9 10 -16 6 -16 -4 0 -2 -7 5 -15
7 -9 21 -13 31 -10 11 4 19 2 19 -4 0 -5 14 -12 30 -16 17 -4 30 -11 30 -16 0
-6 -5 -7 -10 -4 -15 9 -25 -24 -11 -38 6 -6 11 -16 11 -22 0 -5 -4 -4 -9 4 -8
12 -12 12 -25 2 -18 -15 -21 -8 -7 18 6 10 6 23 0 32 -8 12 -11 11 -20 -3 -5
-10 -18 -18 -27 -18 -14 0 -15 2 -2 10 12 8 12 10 -3 16 -9 3 -17 15 -17 26 0
14 -5 18 -16 14 -12 -5 -15 -2 -10 10 3 8 6 27 6 40 0 18 6 24 23 25 12 0 17
3 11 5 -7 3 -10 14 -7 24 4 15 0 20 -16 20 -19 0 -20 -3 -11 -20 7 -14 7 -20
0 -20 -5 0 -10 -12 -11 -27 0 -16 -4 -37 -9 -48 -7 -18 -9 -18 -15 -3 -4 9
-13 14 -21 11 -9 -3 -14 2 -15 13 0 11 -3 14 -6 7 -2 -7 -12 -13 -21 -14 -14
0 -14 -2 -2 -6 19 -8 35 -25 36 -40 2 -28 4 -33 15 -33 8 0 7 5 -1 15 -10 12
-10 19 -2 27 9 9 12 9 12 -1 0 -8 7 -11 20 -8 11 3 23 1 26 -4 3 -5 -2 -9 -10
-9 -10 0 -16 -9 -16 -21 0 -18 -4 -20 -30 -14 -18 4 -30 3 -30 -4 0 -6 7 -8
15 -5 23 9 29 -21 10 -50 -17 -26 -17 -26 9 -26 14 0 26 -4 26 -8 0 -10 -62
-8 -78 2 -6 3 -14 0 -19 -7 -4 -8 -19 -14 -33 -13 -16 1 -25 -4 -25 -14 0 -8
-7 -20 -15 -27 -13 -11 -13 -12 3 -13 9 0 17 -5 17 -11 0 -7 -12 -9 -36 -4
-27 5 -41 2 -57 -12 -11 -10 -17 -12 -13 -5 5 8 1 12 -10 12 -16 0 -16 1 1 14
17 12 16 14 -14 18 -25 4 -31 1 -26 -10 3 -8 -8 -26 -27 -42 -18 -16 -29 -32
-25 -36 4 -4 20 5 35 19 35 34 48 35 26 2 -9 -14 -23 -25 -30 -25 -8 0 -14 -7
-14 -15 0 -17 -16 -20 -25 -5 -3 6 -20 10 -36 10 -24 0 -30 5 -35 28 -8 39
-43 53 -94 38 -22 -7 -37 -15 -33 -20 11 -11 -19 -26 -39 -20 -13 4 -16 1 -12
-10 4 -10 1 -16 -7 -16 -11 0 -11 -2 1 -10 18 -11 6 -25 -15 -16 -12 4 -14 12
-9 28 15 49 15 52 -1 26 -8 -16 -23 -28 -33 -28 -15 0 -15 -2 -2 -10 13 -8 12
-10 -2 -10 -24 0 -24 -47 -1 -53 17 -4 17 -5 1 -6 -17 -1 -18 -31 -18 -487 l0
-486 53 73 c28 39 68 90 88 113 37 42 59 77 59 95 0 6 -9 19 -21 30 -26 24
-20 50 27 107 18 22 45 67 60 100 37 80 77 137 111 160 15 10 68 32 118 49 89
31 90 32 124 89 32 54 35 57 43 36 13 -35 31 -10 29 42 -2 84 -6 128 -12 128
-4 0 -10 7 -13 15 -4 12 -2 14 11 7 13 -8 30 5 81 59 38 40 69 66 76 62 6 -4
19 -6 29 -5 10 2 27 -8 37 -21 44 -56 139 -61 204 -12 20 15 36 34 36 41 0 8
5 14 11 14 6 0 9 10 7 23 -3 20 -27 36 -118 77 -8 4 -24 24 -36 46 -23 45 -79
78 -107 63 -18 -10 -37 -4 -37 11 0 5 7 7 15 4 8 -4 15 -2 15 4 0 5 18 30 41
56 l41 46 -34 -17 c-32 -18 -37 -22 -57 -53 -8 -12 -13 -12 -23 -2 -9 9 -8 12
6 12 11 0 16 5 13 14 -7 17 24 44 43 38 8 -3 12 -2 9 2 -7 7 -52 18 -84 20
-11 1 -26 5 -32 9 -7 5 -13 4 -13 -2z"/>
<path d="M6260 3915 c0 -13 33 -15 240 -15 132 0 240 -3 239 -7 0 -5 -84 -79
-187 -165 -103 -87 -209 -178 -237 -202 l-50 -45 283 -1 c244 0 282 2 282 15
0 13 -33 15 -235 15 -129 0 -235 3 -234 8 0 5 253 226 442 384 l32 27 -287 1
c-250 0 -288 -2 -288 -15z"/>
<path d="M7000 3780 l0 -50 113 0 c61 0 183 -3 270 -7 l157 -6 0 56 0 57 -270
0 -270 0 0 -50z"/>
<path d="M7190 3621 c-85 -26 -161 -103 -186 -189 -21 -70 -14 -163 14 -217
22 -42 67 -95 81 -95 5 0 20 17 33 38 l26 38 -28 27 c-58 58 -62 154 -9 226
38 53 81 75 149 75 70 1 120 -28 156 -90 22 -38 26 -54 22 -104 -3 -48 -10
-67 -37 -100 l-32 -40 27 -35 c14 -19 30 -35 34 -35 14 0 63 64 83 110 24 52
27 150 8 220 -17 60 -99 141 -166 163 -50 18 -131 21 -175 8z"/>
<path d="M6260 3395 c0 -13 36 -15 282 -13 214 2 282 6 286 16 3 9 -58 12
-282 12 -249 0 -286 -2 -286 -15z"/>
<path d="M392 3369 c-43 -20 -87 -64 -97 -96 -9 -33 1 -44 31 -33 22 9 25 8
20 -8 -9 -28 42 -52 109 -52 55 0 135 -31 135 -52 0 -4 6 -5 14 -2 8 3 17 1
21 -5 3 -6 16 -11 29 -11 12 0 26 -4 32 -10 9 -9 197 -30 272 -30 25 0 30 3
23 13 -66 81 -87 100 -170 152 -9 6 -18 12 -21 15 -3 3 -40 20 -82 38 -90 37
-137 40 -226 13 -61 -19 -63 -19 -72 -1 -10 19 6 73 19 66 3 -2 20 3 36 10
l30 13 -33 -1 c-18 -1 -50 -10 -70 -19z"/>
<path d="M6535 3231 c-143 -37 -266 -69 -273 -72 -7 -2 95 -44 225 -93 131
-49 241 -92 246 -96 4 -3 -93 -44 -215 -90 -123 -46 -234 -88 -248 -93 -21 -8
25 -22 265 -83 160 -41 291 -74 293 -74 2 0 2 8 0 17 -2 13 -56 30 -232 74
-126 32 -230 60 -232 61 -1 2 103 43 232 92 207 79 263 106 222 106 -17 0
-448 164 -448 170 0 3 89 28 198 54 267 66 262 65 262 81 0 8 -8 15 -17 14
-10 0 -135 -31 -278 -68z"/>
<path d="M7228 3048 l-3 -33 -112 -3 -113 -3 0 -49 0 -50 115 0 115 0 0 -30
c0 -26 -12 -37 -115 -107 l-114 -78 -1 -63 c0 -48 3 -61 13 -56 6 5 74 52 149
107 l138 98 114 -100 c63 -56 117 -101 120 -101 3 0 6 26 6 58 l-1 57 -109 93
c-61 51 -110 99 -110 107 0 11 22 15 108 17 l107 3 3 48 3 47 -38 2 c-21 1
-71 0 -110 -1 l-73 -3 0 36 c0 36 0 36 -44 36 -43 0 -45 -1 -48 -32z"/>
<path d="M191 2909 c-18 -11 -48 -37 -66 -57 -91 -103 -125 -148 -125 -166 0
-16 11 -10 57 35 135 129 162 150 180 141 10 -5 41 -12 70 -15 43 -5 57 -2 84
16 56 38 51 51 -17 43 -79 -10 -153 -15 -131 -9 9 2 17 11 17 19 0 20 -29 17
-69 -7z"/>
</g>
</svg>
