<?xml version="1.0" standalone="no"?>
<!DOCTYPE svg PUBLIC "-//W3C//DTD SVG 20010904//EN"
 "http://www.w3.org/TR/2001/REC-SVG-20010904/DTD/svg10.dtd">
<svg version="1.0" xmlns="http://www.w3.org/2000/svg"
 width="220.000000pt" height="219.000000pt" viewBox="0 0 220.000000 219.000000"
 preserveAspectRatio="xMidYMid meet">
<metadata>
Created by potrace 1.16, written by Peter Selinger 2001-2019
</metadata>
<g transform="translate(0.000000,219.000000) scale(0.100000,-0.100000)"
fill="#000000" stroke="none">
<path d="M130 2150 c-11 -22 -24 -39 -28 -36 -4 2 -7 -8 -8 -23 -1 -15 -22
-73 -47 -129 l-47 -101 0 -421 c0 -404 3 -448 29 -470 12 -10 71 -101 71 -110
0 -14 101 -112 153 -148 31 -21 47 -38 45 -50 -2 -11 3 -16 14 -14 10 2 18 -2
18 -8 0 -5 -6 -10 -12 -10 -7 0 2 -9 20 -20 18 -11 30 -25 27 -30 -4 -6 -2 -9
2 -8 5 2 29 -19 54 -46 24 -27 56 -62 71 -77 14 -15 23 -30 20 -33 -3 -3 1 -6
10 -6 16 0 48 -30 48 -45 0 -5 -7 0 -16 11 -15 18 -15 18 -4 -3 12 -25 30 -39
30 -23 0 6 5 8 10 5 6 -3 10 -13 10 -22 0 -9 9 -24 21 -34 12 -10 18 -23 13
-30 -4 -8 -3 -9 4 -5 7 4 12 3 12 -3 0 -5 9 -13 20 -16 11 -4 18 -10 15 -15
-3 -4 4 -10 15 -13 11 -3 20 -13 20 -22 0 -9 4 -13 10 -10 5 3 10 0 10 -8 0
-8 7 -17 15 -21 8 -3 14 -11 13 -18 -2 -7 3 -13 10 -14 6 -1 15 -2 18 -3 4 0
1 -7 -5 -15 -8 -10 -9 -16 -1 -21 5 -3 10 -10 10 -16 0 -19 -131 94 -211 184
-46 50 -112 121 -146 157 -104 110 -154 164 -176 193 -12 16 -39 47 -60 70
-21 23 -54 67 -75 97 -20 30 -40 57 -45 58 -4 2 -4 9 0 15 4 6 0 8 -11 4 -14
-6 -15 -4 -5 16 9 18 9 20 -2 10 -17 -17 -37 -17 -21 -1 7 7 12 17 12 23 0 5
-4 4 -9 -4 -8 -12 -12 -13 -25 -2 -12 10 -13 17 -6 26 8 9 8 15 0 20 -6 3 -7
11 -4 17 4 7 2 8 -5 4 -9 -6 -9 -11 -1 -21 6 -8 7 -16 2 -19 -5 -3 -10 -17
-10 -30 0 -18 5 -23 17 -19 14 6 14 4 -1 -14 -17 -18 -18 -54 -18 -436 l0
-417 473 0 c355 0 476 3 485 12 9 9 12 9 12 0 0 -7 14 -12 35 -12 l34 0 -24
63 c-13 34 -26 69 -30 79 -6 14 -1 16 36 11 30 -4 40 -3 35 5 -5 8 2 12 18 12
14 0 26 -5 26 -11 0 -5 5 -7 10 -4 6 4 8 10 5 15 -3 5 14 8 39 7 35 -2 42 -5
33 -15 -5 -7 -16 -11 -23 -8 -8 3 -13 2 -12 -2 2 -4 -5 -18 -14 -32 -16 -24
-21 -52 -19 -97 1 -22 5 -23 86 -23 l84 0 -13 28 c-28 56 -35 91 -21 102 8 6
15 21 17 33 2 13 9 21 17 19 12 -3 12 0 2 12 -11 13 -9 16 13 22 22 5 24 9 15
31 -13 35 -12 41 14 46 17 3 15 5 -9 6 -16 0 -39 8 -50 16 -19 15 -19 15 1 9
19 -5 19 -5 2 9 -16 14 -16 16 3 39 10 14 27 24 37 23 31 -3 52 -16 47 -30 -3
-7 -1 -16 5 -20 12 -7 14 -65 5 -115 -4 -19 -15 -35 -28 -40 -18 -7 -19 -9 -5
-15 11 -4 19 -24 23 -62 4 -31 12 -64 19 -72 11 -14 10 -14 -5 -2 -16 12 -18
11 -16 -13 2 -24 6 -26 50 -26 38 0 46 3 42 15 -4 9 0 15 10 15 9 0 16 5 16
10 0 6 6 10 13 10 7 0 18 5 24 11 9 9 6 17 -10 31 l-22 19 33 -4 c18 -2 35 0
38 5 3 4 -2 8 -10 8 -9 0 -16 7 -16 15 0 8 9 15 20 15 11 0 20 5 20 10 0 6 -8
10 -17 10 -15 0 -15 2 -4 9 11 7 9 10 -10 14 -22 4 -22 4 4 6 31 1 28 21 -4
21 -24 0 -35 25 -20 44 6 7 9 21 5 30 -4 10 2 23 17 35 l23 19 -49 0 c-74 -1
-78 0 -98 28 -17 23 -17 27 -4 42 8 9 17 26 19 37 3 18 13 21 108 26 l105 5
-101 2 -101 2 -6 55 c-10 101 -91 199 -184 226 -26 7 -42 14 -35 17 7 2 12 8
12 13 0 6 -9 5 -21 -2 -15 -8 -19 -8 -15 0 4 6 2 11 -3 11 -6 0 -11 -4 -11 -8
0 -5 -22 -14 -49 -21 -27 -7 -64 -20 -83 -30 -22 -13 -47 -17 -73 -14 -67 7
-71 30 -12 58 18 9 24 13 15 11 -11 -3 -15 0 -12 8 2 6 19 12 37 12 28 -1 33
3 42 32 5 17 15 32 21 32 7 0 15 8 17 18 4 16 5 16 6 -1 1 -13 8 -17 29 -14
26 4 27 6 30 74 3 63 5 72 25 77 14 3 26 0 33 -9 10 -13 12 -13 17 5 3 11 1
18 -3 15 -5 -3 -2 9 7 26 15 31 19 31 68 14 l20 -7 -20 13 c-11 7 -22 15 -25
19 -8 12 -50 -8 -50 -25 0 -20 -16 -19 -32 3 -7 9 -25 23 -41 30 -18 8 -29 22
-33 42 -6 29 -24 42 -24 18 0 -9 -4 -8 -10 2 -8 12 -12 13 -19 2 -6 -11 -10
-10 -15 3 -4 11 -13 15 -25 12 -12 -3 -22 1 -25 9 -3 8 0 14 6 14 7 0 6 6 -3
16 -10 13 -10 17 1 24 12 7 11 10 -3 16 -9 3 -14 10 -11 15 3 5 -3 9 -13 9
-19 0 -98 59 -89 67 2 3 -4 13 -15 24 -10 10 -19 27 -19 37 -1 13 -4 12 -14
-7 l-13 -24 -2 29 c-3 67 -6 94 -12 94 -3 0 -5 12 -3 28 2 15 6 42 8 59 2 18
7 38 13 45 5 7 8 23 7 35 -1 14 3 20 12 16 8 -3 14 -9 14 -15 0 -5 -5 -6 -12
-2 -7 5 -8 3 -4 -5 6 -9 12 -9 25 3 10 9 21 13 24 9 4 -3 7 -1 7 6 0 12 30 12
40 0 3 -4 16 -10 30 -14 25 -8 25 -7 7 13 -18 20 -18 20 1 15 11 -3 29 0 39 6
17 10 17 10 -2 12 -11 1 -26 0 -34 -1 -11 -1 -10 2 3 15 9 9 16 22 15 28 0 8
-2 8 -6 -1 -4 -9 -10 -7 -22 7 -10 12 -22 17 -26 13 -4 -4 -4 3 -1 15 6 19 4
22 -10 16 -12 -4 -15 -3 -10 5 4 7 2 12 -5 12 -7 0 -10 3 -7 6 4 3 15 1 27 -5
13 -7 22 -8 26 -1 3 5 2 10 -3 10 -6 0 -15 14 -21 31 -7 19 -15 28 -22 23 -8
-5 -9 -3 -5 5 5 7 14 10 20 8 7 -3 13 1 13 9 0 7 -4 11 -9 8 -5 -4 -8 0 -6 7
1 8 -2 14 -7 14 -5 0 -9 -6 -7 -12 2 -7 -2 -13 -8 -13 -6 0 -8 5 -5 10 3 6 2
10 -4 10 -6 0 -7 7 -4 17 5 11 3 14 -6 8 -10 -6 -11 -3 -2 12 6 11 7 23 3 27
-3 4 2 4 13 0 16 -6 18 -4 8 6 -10 11 -10 17 0 29 10 12 9 14 -5 8 -10 -3 -18
-2 -18 2 0 5 6 11 13 14 9 3 9 7 -1 19 -7 9 -12 20 -11 24 3 20 -2 35 -10 30
-5 -3 -8 2 -7 12 1 16 -24 17 -361 20 l-362 3 -21 -41z m400 -324 c0 -8 3 -21
6 -30 5 -13 1 -15 -24 -10 -22 5 -35 1 -51 -15 -21 -21 -29 -47 -12 -37 14 9
41 -4 41 -19 0 -16 -40 -27 -41 -12 0 8 -2 8 -6 -1 -2 -6 7 -26 21 -43 14 -17
26 -36 26 -44 0 -7 7 -18 15 -25 8 -7 15 -28 15 -46 0 -28 -4 -34 -22 -34 -53
0 -103 95 -63 118 14 7 14 12 -1 41 -23 47 -11 95 34 137 39 36 62 43 62 20z
m733 -1092 c2 -13 0 -24 -6 -24 -6 0 -8 -3 -5 -6 4 -3 18 2 33 12 26 17 26 16
61 -17 51 -49 76 -102 76 -166 0 -29 -2 -56 -5 -59 -3 -3 -18 0 -34 8 -20 9
-29 23 -34 48 -14 85 -60 147 -126 171 -31 12 -34 26 -11 55 14 19 46 5 51
-22z m-82 -88 c16 -3 29 -11 29 -17 0 -8 -4 -8 -13 0 -10 8 -17 7 -25 -1 -16
-16 -15 -33 4 -48 8 -8 14 -9 13 -4 -4 23 2 26 17 8 14 -18 15 -18 4 4 -6 12
-9 22 -6 22 2 0 10 2 18 5 10 4 13 -7 12 -42 0 -27 5 -51 10 -55 22 -15 45 -7
59 21 12 25 12 29 1 24 -16 -6 -17 -2 -8 22 6 14 8 14 20 -4 18 -25 2 -71 -26
-78 -24 -6 -25 -16 -5 -37 17 -16 20 -30 6 -21 -6 3 -15 -4 -21 -15 -11 -20
-10 -21 10 -10 26 14 36 8 16 -9 -24 -20 -108 -43 -103 -28 2 6 10 13 18 13 8
1 20 2 27 3 37 3 -17 91 -56 91 -34 0 -44 -24 -20 -44 17 -15 18 -20 7 -27
-22 -14 -38 -10 -50 12 -9 18 -7 25 17 50 15 15 30 26 35 24 12 -8 -1 57 -16
78 -9 12 -15 15 -20 7 -5 -8 -11 -8 -21 1 -10 8 -14 8 -14 1 0 -6 -7 -9 -15
-6 -8 4 -12 10 -9 15 3 5 1 17 -5 26 -8 15 -3 21 32 34 33 13 43 14 45 4 2 -7
16 -15 33 -19z m-266 -70 c-6 -48 -6 -50 9 -31 12 14 14 15 10 4 -3 -10 0 -20
7 -25 7 -4 10 -3 5 4 -3 6 2 18 11 28 17 17 17 18 0 11 -21 -8 -35 19 -19 35
8 8 20 7 41 -2 17 -7 31 -14 31 -16 0 -1 -11 -15 -25 -30 -13 -14 -21 -32 -18
-38 5 -7 11 0 17 17 12 34 26 35 26 2 0 -29 20 -75 33 -75 5 0 7 -7 4 -15 -4
-8 -1 -17 6 -21 7 -4 9 -4 5 1 -4 4 -3 16 2 25 7 13 6 20 -6 24 -8 3 -13 10
-9 15 3 5 1 12 -5 16 -16 10 -11 71 8 92 9 10 13 13 8 5 -10 -14 11 -35 26
-26 4 3 8 0 8 -6 0 -6 4 -9 8 -6 5 3 9 -1 9 -9 0 -8 -5 -15 -11 -15 -5 0 -1
-7 10 -16 10 -8 14 -13 7 -10 -6 4 -15 2 -18 -4 -4 -6 -3 -10 2 -9 34 6 46
-15 13 -24 -15 -4 -20 -14 -20 -36 0 -17 5 -31 12 -31 9 0 9 -3 0 -12 -10 -10
-14 -10 -21 0 -5 8 -8 1 -8 -18 0 -16 4 -30 9 -30 4 0 8 -7 8 -15 0 -14 -12
-19 -32 -16 -12 2 -10 -17 2 -24 15 -9 12 -25 -5 -25 -8 0 -23 -8 -33 -17 -10
-10 -26 -19 -35 -19 -15 -2 -16 1 -5 14 11 13 10 15 -4 9 -12 -4 -15 -2 -11 9
3 7 9 14 15 14 5 0 7 9 3 19 -4 13 0 24 12 31 16 11 17 11 1 6 -11 -3 -18 0
-18 8 0 7 -7 19 -15 26 -13 11 -14 8 -12 -21 2 -19 0 -39 -5 -46 -5 -6 -5 -14
0 -17 5 -3 7 -17 4 -31 -4 -22 -11 -10 -42 67 -21 51 -46 111 -56 133 -31 69
-29 88 14 133 22 23 37 44 33 48 -3 4 0 4 7 0 10 -6 12 -22 7 -60z m-177 -73
c10 -16 36 -58 56 -95 22 -39 45 -68 54 -69 16 -1 16 -2 0 -6 -9 -2 -19 -11
-22 -20 -6 -14 -4 -14 11 -2 14 11 13 9 -2 -12 -11 -15 -23 -25 -27 -22 -5 2
-8 -1 -8 -6 0 -16 -15 -13 -39 7 -22 17 -67 122 -53 122 4 0 17 -22 30 -49 26
-57 54 -76 50 -33 -2 15 -7 32 -12 37 -4 6 -18 30 -30 55 -11 25 -30 49 -42
55 -11 6 -19 16 -16 23 2 6 -1 12 -7 12 -6 0 -8 7 -5 15 10 24 41 17 62 -12z"/>
<path d="M895 2163 c9 -13 14 -31 11 -39 -3 -9 -1 -12 4 -9 6 3 10 12 10 19 0
17 45 40 64 33 8 -3 17 -1 20 6 5 9 7 9 12 -1 3 -6 10 -10 14 -7 5 3 11 1 15
-5 3 -5 -1 -10 -9 -10 -9 0 -16 -4 -16 -10 0 -5 -7 -7 -15 -4 -8 4 -15 2 -15
-4 0 -11 25 -10 36 1 14 13 31 7 42 -15 7 -15 11 -18 11 -7 1 8 -4 20 -11 27
-7 7 -8 12 -2 12 14 0 30 -13 42 -35 6 -11 12 -14 12 -7 0 6 6 12 14 12 8 0
17 8 20 18 3 9 4 4 2 -13 -4 -26 -3 -27 9 -12 15 21 29 22 21 1 -3 -8 -2 -12
4 -9 6 3 10 -2 10 -11 0 -13 3 -15 11 -7 13 13 51 5 43 -9 -6 -9 45 -55 58
-51 4 2 4 -5 1 -14 -4 -11 -3 -14 5 -9 8 5 11 0 9 -16 -1 -15 3 -22 12 -20 8
2 11 -3 8 -13 -4 -8 -2 -15 3 -15 6 0 10 -8 10 -17 0 -13 -3 -14 -12 -5 -20
20 -29 14 -10 -7 9 -10 19 -18 22 -17 18 2 50 -32 50 -54 l-1 -25 -15 28 c-17
32 -20 33 -20 8 0 -11 4 -17 8 -15 4 3 8 -2 8 -10 0 -9 0 -19 0 -23 0 -5 -4
-8 -9 -8 -5 0 -13 -4 -18 -9 -5 -5 -3 -6 5 -2 7 4 12 2 12 -6 0 -10 2 -10 9 1
5 8 11 9 15 3 6 -11 -21 -25 -33 -17 -5 2 -7 -7 -5 -20 1 -14 -6 -35 -17 -47
-16 -20 -20 -21 -29 -8 -6 9 -10 10 -10 3 0 -6 7 -19 16 -27 8 -9 11 -16 5
-16 -6 0 -11 -5 -11 -11 0 -5 5 -7 10 -4 6 4 10 -10 10 -35 0 -33 -3 -41 -14
-37 -10 4 -13 1 -10 -7 3 -7 -2 -16 -12 -20 -13 -5 -14 -9 -4 -22 9 -10 10
-18 3 -25 -13 -13 -56 24 -45 37 4 4 -1 4 -10 1 -12 -4 -15 -2 -11 8 7 21 -24
30 -44 14 -12 -10 -15 -10 -9 -1 5 8 -1 12 -23 12 -16 0 -36 6 -43 13 -7 8
-19 12 -25 10 -7 -3 -18 5 -25 16 -7 12 -23 21 -37 21 -18 0 -22 4 -18 20 8
32 -3 23 -18 -14 -14 -34 -14 -84 2 -108 8 -13 9 -18 12 -39 0 -5 6 -7 13 -3
7 4 8 3 4 -5 -4 -6 0 -18 8 -26 15 -16 11 -44 -7 -56 -5 -4 -11 -21 -12 -39
-3 -30 -2 -30 15 -13 13 14 15 21 6 32 -8 11 -8 13 1 7 7 -4 20 -24 29 -44 10
-20 20 -41 22 -46 3 -5 -1 -6 -8 -1 -8 5 -11 3 -8 -6 6 -17 40 -12 51 7 4 8
20 14 34 14 21 0 24 3 15 12 -9 9 -8 16 5 30 19 22 35 24 27 4 -3 -8 0 -23 6
-33 10 -16 11 -16 7 4 -7 32 19 63 52 63 17 0 38 10 52 24 26 26 19 25 384 41
22 1 49 5 59 10 12 5 17 5 13 -1 -3 -6 11 -9 36 -9 23 1 82 3 130 3 49 1 86 6
83 10 -2 4 12 6 32 4 35 -4 36 -3 17 12 -20 15 -19 15 7 16 15 0 30 5 34 11 7
11 -38 9 -212 -10 -49 -6 -183 -17 -299 -26 -115 -8 -220 -17 -232 -20 -13 -3
-23 -1 -23 3 0 5 38 12 85 16 46 4 104 9 127 11 24 3 112 10 197 15 150 11
367 42 380 56 3 4 -10 4 -29 0 -120 -21 -262 -37 -450 -51 -118 -8 -234 -18
-257 -21 -36 -5 -43 -4 -43 11 0 9 9 19 21 22 16 4 20 12 16 29 -3 19 0 24 17
24 17 0 18 -2 6 -10 -16 -10 -8 -23 15 -26 8 -1 15 3 15 8 0 6 10 3 23 -8 12
-10 6 -2 -12 19 -19 20 -43 37 -54 37 -10 0 -15 5 -12 10 4 6 19 9 33 8 26 -3
27 -1 27 42 0 25 4 51 8 58 10 15 -5 16 -21 0 -9 -9 -12 -7 -11 12 2 66 -13
210 -27 253 -9 26 -13 54 -10 62 3 8 -3 19 -12 24 -10 5 -27 26 -37 45 -11 20
-23 36 -27 36 -5 0 -8 5 -8 10 0 6 30 11 68 12 48 1 55 3 25 5 -24 2 -43 8
-43 14 0 5 -17 7 -40 3 -27 -5 -40 -3 -40 5 0 8 -45 11 -162 10 -144 -2 -163
-4 -180 -21 -21 -21 -38 -17 -20 4 8 10 4 13 -14 14 -24 2 -25 1 -9 -23z"/>
<path d="M1660 1988 c0 -3 9 -15 20 -28 11 -12 17 -27 13 -33 -3 -6 -1 -7 5
-3 7 4 12 1 12 -7 0 -17 -37 -30 -43 -14 -2 6 -11 7 -23 3 -19 -8 -19 -8 1
-16 19 -9 19 -9 -2 -16 -13 -3 -23 -14 -23 -23 0 -14 2 -14 10 -1 8 12 10 11
10 -7 0 -37 -1 -38 -18 -35 -9 2 0 -9 20 -25 21 -15 37 -30 37 -33 0 -3 -8
-15 -18 -27 -15 -18 -24 -21 -47 -14 -16 4 -54 5 -84 2 l-55 -6 0 -50 c0 -33
4 -50 13 -51 6 -1 23 -2 37 -3 15 0 25 -6 24 -13 -1 -7 1 -21 6 -31 4 -9 5
-26 2 -37 -7 -26 8 -26 26 0 8 11 17 17 20 13 4 -3 7 10 7 30 0 31 3 36 30 42
27 6 30 10 26 35 -2 16 -7 34 -12 41 -4 8 -3 10 5 5 6 -4 11 -4 10 1 -1 4 2
18 6 30 6 18 12 21 42 16 27 -5 35 -3 31 7 -2 8 -10 16 -18 18 -7 3 -10 0 -6
-7 12 -20 -12 -12 -42 14 -34 29 -34 71 -1 62 25 -7 24 5 -2 21 -17 11 -18 16
-8 28 7 9 20 12 32 8 13 -4 17 -2 13 5 -4 6 -3 11 3 11 5 0 15 -8 20 -17 6
-11 11 -13 11 -5 0 7 5 10 10 7 6 -3 10 -1 10 4 0 6 -6 11 -13 11 -7 0 -17 10
-22 22 -9 19 -75 77 -75 66z"/>
<path d="M1820 1679 c10 -5 11 -12 5 -16 -15 -12 -17 -33 -4 -49 6 -8 9 -23 6
-34 -5 -18 0 -20 39 -20 42 0 43 1 38 28 -6 27 -4 29 24 24 23 -3 30 0 35 17
3 12 2 21 -2 21 -4 0 -8 7 -8 15 0 8 7 15 14 15 8 0 11 -5 7 -12 -4 -7 -3 -8
4 -4 29 18 5 25 -80 25 -62 0 -88 -3 -78 -10z"/>
<path d="M1740 1369 c-13 -6 -33 -17 -42 -26 -17 -15 -18 -15 -18 5 0 20 -5
22 -50 22 -40 0 -50 -3 -50 -17 0 -15 -1 -15 -18 0 -14 13 -38 17 -100 17
l-82 0 0 -35 c0 -24 -5 -35 -15 -35 -21 0 -21 -88 0 -96 20 -8 17 -144 -2
-144 -20 0 -17 -86 3 -94 11 -4 15 -16 12 -38 -3 -33 -3 -33 45 -36 43 -3 47
-1 48 20 l0 23 11 -22 c10 -21 17 -22 114 -21 78 0 109 5 131 18 25 15 31 15
51 2 12 -8 22 -23 22 -33 0 -16 8 -19 45 -19 37 0 45 3 45 18 0 29 42 47 69
31 11 -8 21 -22 21 -31 0 -15 9 -18 45 -18 35 0 45 4 45 16 0 9 14 29 30 44
33 31 40 79 15 100 -14 11 -14 15 2 32 17 19 17 21 -10 43 -30 27 -35 40 -11
31 36 -14 31 8 -15 67 l-49 62 49 55 c26 30 49 57 49 60 0 9 -125 -2 -137 -12
-9 -7 -13 -7 -13 1 0 7 -20 11 -50 11 -36 0 -50 -4 -50 -14 0 -11 -8 -10 -37
5 -41 21 -65 23 -103 8z m114 -38 c19 -20 19 -21 1 -41 -16 -18 -20 -19 -35
-5 -22 20 -49 19 -72 -2 -22 -20 -23 -41 -1 -65 19 -22 56 -24 73 -3 10 12 15
12 37 -2 l24 -16 -26 -26 c-31 -32 -96 -36 -138 -9 -39 26 -54 85 -32 131 30
65 121 85 169 38z m-302 2 c22 -20 23 -70 2 -94 -15 -17 -15 -21 5 -52 26 -43
26 -48 -1 -43 -13 3 -29 5 -36 5 -7 1 -20 17 -29 36 -22 45 -39 45 -38 -2 0
-33 -3 -36 -27 -37 -26 -2 -28 1 -28 35 0 21 -4 39 -8 41 -5 2 -12 15 -16 31
-5 20 -3 27 9 27 11 0 15 10 15 35 l0 35 67 0 c48 0 72 -5 85 -17z m408 -13
l0 -30 28 31 c22 25 34 30 62 27 l35 -3 -39 -43 -39 -42 28 -41 c16 -22 32
-42 37 -45 4 -3 8 -11 8 -18 0 -8 -12 -11 -35 -8 -27 3 -40 12 -57 41 l-23 36
-3 -36 c-2 -30 -8 -38 -27 -42 -31 -5 -35 -1 -35 40 0 18 -4 33 -10 33 -5 0
-10 14 -10 30 0 17 5 30 10 30 6 0 10 16 10 35 0 32 2 35 30 35 27 0 30 -3 30
-30z m-90 -200 c0 -5 14 -16 30 -25 35 -18 37 -26 10 -43 -15 -9 -24 -9 -39
-1 -11 7 -26 9 -37 4 -15 -6 -10 -10 26 -17 57 -13 70 -23 70 -59 0 -20 -9
-35 -30 -51 -16 -12 -30 -28 -30 -35 0 -7 -11 -13 -25 -13 -18 0 -25 5 -25 20
0 11 -6 20 -12 20 -7 0 -22 7 -32 15 -18 14 -19 16 -2 34 16 18 19 18 45 3 17
-10 35 -13 47 -8 19 8 19 8 -1 16 -11 4 -33 11 -49 16 -16 5 -33 16 -39 25
-14 23 -1 67 23 74 11 3 20 13 20 21 0 8 10 14 25 14 14 0 25 -4 25 -10z m180
1 c0 -6 14 -18 30 -28 36 -21 36 -24 9 -41 -15 -10 -24 -11 -32 -3 -13 13 -57
15 -57 2 0 -5 18 -11 39 -15 74 -12 92 -58 41 -106 -16 -15 -30 -33 -30 -39 0
-6 -11 -11 -25 -11 -15 0 -25 6 -25 15 0 8 -13 21 -30 30 -35 18 -36 22 -14
46 15 17 18 17 40 2 13 -8 31 -12 40 -9 23 9 7 26 -25 26 -31 0 -59 18 -61 40
-5 35 2 51 25 62 14 6 25 17 25 25 0 7 11 13 25 13 14 0 25 -4 25 -9z m-340
-26 c36 -19 50 -43 50 -88 0 -45 -32 -85 -76 -93 -105 -20 -165 102 -83 170
35 30 67 33 109 11z m-165 -19 c16 -24 9 -66 -14 -80 -6 -4 -3 -19 9 -39 26
-41 25 -47 -5 -47 -18 0 -32 11 -52 43 l-28 42 -3 -43 c-3 -40 -5 -43 -30 -40
-24 3 -27 7 -24 36 3 22 -1 34 -12 38 -21 8 -21 43 0 51 12 4 14 14 10 34 l-5
29 69 0 c62 0 71 -3 85 -24z"/>
<path d="M1574 851 c-2 -3 -49 -4 -103 -3 l-100 1 -6 -29 c-13 -59 17 -90 52
-55 14 14 17 14 32 1 14 -13 66 -15 351 -13 l335 2 3 48 3 47 -33 0 c-19 0
-39 -5 -45 -11 -8 -8 -13 -8 -17 0 -11 17 -36 13 -37 -6 0 -15 -3 -14 -16 5
-8 12 -22 22 -29 22 -8 0 -14 -10 -13 -22 0 -13 3 -17 6 -10 9 22 22 13 38
-24 8 -20 15 -37 15 -38 0 -1 -18 -1 -39 -1 -34 0 -38 2 -30 17 5 10 7 29 3
43 -5 20 -12 25 -39 25 -19 0 -37 -5 -40 -10 -5 -7 -11 -8 -19 -1 -11 9 -263
20 -272 12z"/>
<path d="M1621 682 c-1 -12 6 -25 14 -28 25 -10 17 -23 -12 -20 -24 2 -28 6
-26 31 2 25 1 27 -7 10 -15 -35 -11 -83 8 -94 27 -16 12 -13 -48 10 -67 25
-67 25 47 -50 70 -45 103 -61 140 -65 26 -3 93 -11 148 -17 55 -5 141 -17 191
-25 134 -21 124 -26 124 62 0 47 -4 73 -10 69 -5 -3 -10 -2 -10 4 0 5 6 12 13
15 6 3 -9 4 -35 3 -27 -1 -48 -5 -48 -9 0 -3 -3 -13 -6 -21 -4 -12 3 -14 42
-9 46 5 47 4 41 -19 -4 -13 -7 -29 -7 -35 0 -7 -11 -9 -25 -6 -16 3 -25 0 -25
-9 0 -10 -3 -10 -11 -2 -6 6 -18 9 -25 6 -10 -3 -12 0 -9 10 4 9 -2 16 -16 20
-14 4 -20 11 -16 20 3 9 -3 23 -12 32 -17 15 -22 14 -62 -6 -24 -12 -53 -30
-64 -40 -15 -13 -29 -15 -60 -10 -22 3 -40 11 -40 17 0 14 -72 94 -105 117
-13 9 -34 17 -46 17 -12 0 -26 10 -32 23 l-11 22 0 -23z"/>
</g>
</svg>
