<?xml version="1.0" standalone="no"?>
<!DOCTYPE svg PUBLIC "-//W3C//DTD SVG 20010904//EN"
 "http://www.w3.org/TR/2001/REC-SVG-20010904/DTD/svg10.dtd">
<svg version="1.0" xmlns="http://www.w3.org/2000/svg"
 width="225.000000pt" height="225.000000pt" viewBox="0 0 225.000000 225.000000"
 preserveAspectRatio="xMidYMid meet">
<metadata>
Created by potrace 1.16, written by Peter Selinger 2001-2019
</metadata>
<g transform="translate(0.000000,225.000000) scale(0.100000,-0.100000)"
fill="#000000" stroke="none">
<path d="M0 1125 l0 -1125 1125 0 1125 0 0 1125 0 1125 -1125 0 -1125 0 0
-1125z m713 -85 c4 0 7 9 7 20 0 17 7 20 44 20 36 0 46 -4 51 -20 4 -12 1 -27
-5 -35 -8 -10 -8 -19 -1 -34 14 -26 14 -31 -3 -31 -8 0 -22 10 -30 22 -9 12
-17 18 -17 13 -4 -34 -2 -41 11 -52 9 -7 10 -12 4 -13 -6 0 -17 7 -24 15 -7 8
-17 15 -22 15 -6 0 -5 -7 2 -15 13 -16 3 -20 -16 -7 -12 8 -84 135 -84 148 0
5 13 -14 29 -41 26 -46 61 -87 61 -72 0 14 -24 57 -32 57 -4 0 -8 7 -8 15 0 8
-9 29 -20 47 -11 18 -20 40 -20 48 1 8 15 -11 33 -42 18 -32 35 -58 40 -58z
m754 56 c-3 -8 -3 -17 1 -21 4 -3 7 -20 8 -36 2 -37 10 -47 26 -31 9 9 9 12 0
12 -19 0 -14 44 8 63 26 22 36 21 63 -3 19 -18 20 -22 7 -31 -11 -8 -12 -12
-2 -16 19 -7 14 -47 -8 -66 -22 -19 -50 -23 -50 -7 0 6 -7 10 -15 10 -8 0 -15
5 -15 12 0 9 -3 9 -12 0 -10 -10 -10 -17 0 -32 11 -18 10 -20 -13 -20 -14 0
-25 5 -25 11 0 5 -4 8 -9 5 -4 -3 -18 6 -31 19 -18 20 -21 27 -11 39 7 8 8 17
3 20 -6 3 -13 -6 -16 -19 -7 -29 -48 -49 -78 -39 -10 3 -26 16 -34 30 -23 34
-38 30 -19 -6 15 -28 15 -30 -4 -30 -12 0 -27 12 -35 28 -14 25 -15 26 -16 5
0 -16 -6 -23 -19 -23 -21 0 -33 39 -24 83 5 25 9 27 49 27 31 0 46 -5 51 -15
5 -14 8 -14 24 1 26 23 78 22 97 -2 13 -17 14 -17 8 -1 -4 12 -2 16 6 11 6 -4
17 1 24 11 8 11 21 16 34 12 11 -3 20 -1 20 4 0 5 3 9 6 9 3 0 4 -6 1 -14z
m70 -721 c-4 -8 -2 -17 3 -20 15 -10 12 -72 -5 -89 -9 -8 -11 -17 -6 -21 6 -3
13 -26 17 -50 4 -27 10 -42 16 -39 6 4 8 1 6 -7 -3 -8 -14 -12 -24 -11 -21 4
-35 22 -28 34 3 4 -2 8 -10 8 -18 0 -22 -26 -5 -32 7 -2 4 -10 -7 -18 -11 -9
-15 -10 -10 -2 5 9 -11 12 -71 12 l-78 0 3 112 3 113 49 -3 c41 -3 49 -7 53
-28 2 -13 0 -21 -4 -18 -5 3 -9 12 -9 20 0 9 -11 14 -30 14 -29 0 -30 -2 -30
-45 0 -34 4 -45 15 -45 9 0 20 10 25 23 7 17 9 12 9 -28 0 -40 -2 -45 -9 -27
-5 12 -16 22 -25 22 -11 0 -15 -12 -15 -50 0 -49 0 -50 31 -50 24 0 32 5 37
23 6 22 6 22 13 -3 4 -14 7 23 6 82 l-2 108 30 6 c27 6 28 8 10 15 -16 6 -13
8 14 8 25 1 32 -2 28 -14z m-713 -28 c4 -18 6 -18 34 3 41 30 69 19 94 -37 25
-57 17 -116 -22 -155 -23 -22 -33 -26 -52 -19 -35 13 -58 61 -59 122 -1 68 -7
89 -25 89 -8 0 -14 4 -14 9 0 18 39 7 44 -12z m375 -12 c0 -28 -1 -28 -9 -7
-7 16 -18 22 -40 22 -29 0 -30 -2 -30 -45 0 -34 4 -45 15 -45 9 0 20 10 25 23
7 17 9 11 8 -28 0 -27 -3 -40 -5 -27 -3 14 -12 22 -24 22 -16 0 -19 -7 -19
-50 l0 -50 34 0 c26 0 36 5 41 21 9 27 16 20 8 -9 -4 -17 -13 -22 -36 -22 -24
0 -28 -3 -19 -12 18 -18 337 -25 359 -7 9 8 14 9 10 2 -4 -6 -1 -14 5 -16 7
-3 -171 -6 -396 -6 -225 -1 -407 1 -405 3 3 3 98 6 211 7 172 1 206 4 201 15
-3 8 -19 14 -38 14 -18 0 -37 6 -42 13 -14 17 -23 97 -12 97 12 0 29 -44 29
-74 0 -14 6 -23 16 -23 14 0 15 15 12 106 l-3 106 53 0 c51 0 52 0 51 -30z"/>
<path d="M866 344 c-19 -19 -21 -60 -3 -67 10 -4 10 -6 0 -6 -9 -1 -13 -17
-13 -46 0 -49 28 -89 55 -79 22 9 38 80 30 133 -12 78 -35 100 -69 65z"/>
</g>
</svg>
