<?xml version="1.0" standalone="no"?>
<!DOCTYPE svg PUBLIC "-//W3C//DTD SVG 20010904//EN"
 "http://www.w3.org/TR/2001/REC-SVG-20010904/DTD/svg10.dtd">
<svg version="1.0" xmlns="http://www.w3.org/2000/svg"
 width="225.000000pt" height="225.000000pt" viewBox="0 0 225.000000 225.000000"
 preserveAspectRatio="xMidYMid meet">
<metadata>
Created by potrace 1.16, written by Peter Selinger 2001-2019
</metadata>
<g transform="translate(0.000000,225.000000) scale(0.100000,-0.100000)"
fill="#000000" stroke="none">
<path d="M0 1125 l0 -1125 1125 0 1125 0 0 1125 0 1125 -1125 0 -1125 0 0
-1125z m1394 412 c-1 -40 -3 -87 -4 -106 -2 -20 2 -37 8 -39 7 -2 12 -8 12
-13 0 -6 -5 -7 -12 -3 -7 5 -8 3 -4 -5 12 -19 -4 -101 -20 -108 -32 -12 -36
13 -16 85 16 58 18 73 7 82 -7 6 -17 9 -21 8 -5 -2 -11 0 -12 5 -6 12 9 86 18
92 4 3 11 26 15 51 10 72 30 39 29 -49z m-266 0 c7 3 11 -1 10 -8 -2 -7 2 -13
7 -14 29 -1 36 -17 20 -41 -9 -14 -11 -24 -5 -24 7 0 4 -13 -7 -30 -17 -29
-16 -31 6 -77 14 -30 17 -42 8 -35 -8 7 -20 26 -27 43 -17 39 -40 34 -64 -14
-23 -48 -31 -42 -10 8 13 32 14 44 3 81 -8 24 -18 44 -24 44 -5 1 2 8 18 16
26 14 37 34 17 34 -5 0 -7 7 -4 15 4 10 11 12 22 6 10 -4 23 -6 30 -4z m926
-13 c9 -3 16 -16 16 -28 1 -11 9 -39 20 -61 11 -22 19 -55 20 -72 0 -27 4 -33
23 -33 16 0 19 -3 8 -9 -10 -6 -12 -22 -9 -54 3 -25 1 -51 -4 -59 -8 -10 -9
-10 -5 3 3 9 2 31 -3 50 l-8 34 -2 -35 c-3 -58 -8 -72 -34 -99 l-26 -25 -30
34 c-16 19 -29 30 -30 23 0 -15 -53 -10 -58 6 -3 8 5 10 25 6 25 -6 26 -5 11
8 -10 8 -18 24 -18 36 0 18 5 21 27 19 21 -2 30 3 38 20 7 16 16 21 30 18 15
-4 13 0 -8 16 -22 16 -25 23 -16 34 6 8 20 14 30 14 11 0 19 5 19 10 0 6 -15
10 -34 10 -26 0 -35 4 -36 18 -4 104 9 133 54 116z m-444 -209 c0 -8 7 -35 16
-61 19 -55 11 -68 -42 -66 -47 2 -52 7 -29 32 13 15 15 20 4 20 -7 0 -28 -16
-45 -35 -28 -32 -32 -34 -45 -19 -19 23 -23 65 -7 75 7 5 23 9 35 9 12 0 31
12 43 27 l22 28 -8 -29 c-5 -22 -4 -27 5 -21 7 4 10 10 7 13 -7 6 23 42 36 42
4 0 8 -7 8 -15z"/>
</g>
</svg>
