<?xml version="1.0" standalone="no"?>
<!DOCTYPE svg PUBLIC "-//W3C//DTD SVG 20010904//EN"
 "http://www.w3.org/TR/2001/REC-SVG-20010904/DTD/svg10.dtd">
<svg version="1.0" xmlns="http://www.w3.org/2000/svg"
 width="225.000000pt" height="225.000000pt" viewBox="0 0 225.000000 225.000000"
 preserveAspectRatio="xMidYMid meet">
<metadata>
Created by potrace 1.16, written by Peter Selinger 2001-2019
</metadata>
<g transform="translate(0.000000,225.000000) scale(0.100000,-0.100000)"
fill="#000000" stroke="none">
<path d="M420 2236 c0 -11 -8 -13 -27 -10 -23 4 -26 3 -15 -7 6 -7 12 -18 12
-23 0 -6 -4 -5 -9 3 -13 20 -78 22 -93 3 -10 -12 -10 -14 0 -8 6 4 12 2 12 -3
0 -6 6 -11 14 -11 8 0 18 -5 22 -12 5 -8 2 -9 -11 -4 -11 4 -22 1 -28 -6 -6
-9 -7 -8 -3 5 3 11 0 17 -10 17 -8 0 -12 -4 -9 -10 3 -5 2 -10 -4 -10 -6 0
-17 12 -26 28 -13 22 -15 23 -10 5 4 -15 2 -23 -7 -24 -7 0 1 -6 17 -12 17 -7
31 -18 33 -25 1 -8 -7 -7 -25 5 -15 10 -24 12 -20 6 5 -8 3 -13 -7 -13 -8 0
-18 5 -21 10 -3 6 -11 10 -17 10 -5 0 0 -9 13 -19 15 -12 28 -16 34 -10 12 12
25 12 25 -1 0 -5 -7 -10 -15 -10 -9 0 -18 -7 -21 -15 -5 -11 -11 -12 -24 -5
-29 15 -35 12 -16 -9 17 -19 17 -19 -2 -14 -24 6 -22 34 3 43 17 6 17 7 -3 12
-12 4 -20 2 -16 -3 5 -8 -8 -13 -31 -10 -6 0 -11 -8 -11 -19 0 -11 7 -20 16
-20 8 0 22 -5 30 -11 11 -8 7 -9 -17 -5 -27 4 -31 3 -26 -12 6 -15 5 -15 -10
-3 -15 12 -17 11 -17 -7 0 -11 6 -23 13 -25 6 -3 -1 -6 -17 -6 -16 -1 -26 -4
-23 -8 4 -3 -2 -13 -13 -20 -11 -8 -18 -19 -15 -24 4 -5 1 -9 -4 -9 -6 0 -11
5 -11 10 0 6 -7 10 -16 10 -14 0 -15 -2 -3 -17 10 -11 10 -14 2 -9 -10 5 -13
-10 -13 -65 l0 -73 83 81 c127 124 287 246 457 351 l35 22 -58 0 c-42 0 -59
-4 -63 -15 -4 -8 -11 -12 -16 -9 -6 4 -5 10 3 15 11 7 10 9 -3 9 -10 0 -18 -6
-18 -14z"/>
<path d="M534 2186 c-145 -90 -291 -204 -421 -330 l-113 -108 0 -277 0 -277
271 -65 c229 -56 276 -65 300 -55 l29 10 0 161 c1 88 5 220 10 293 5 73 12
176 16 230 9 135 23 193 18 72 -3 -52 -7 -124 -9 -160 -3 -36 -8 -182 -11
-326 l-7 -260 79 -18 c52 -11 80 -13 82 -6 2 5 24 10 50 10 25 0 42 -3 39 -6
-3 -4 -2 -15 4 -26 10 -19 12 -19 38 6 22 21 37 26 81 26 l54 0 -29 -30 c-16
-16 -26 -32 -23 -35 3 -3 140 -37 304 -76 165 -38 326 -76 359 -84 33 -8 105
-21 159 -29 55 -8 102 -19 105 -25 4 -5 18 -12 31 -15 96 -20 164 -36 210 -50
101 -30 90 -120 90 749 l0 765 -730 0 c-402 -1 -728 -4 -726 -9 3 -4 -11 -16
-31 -25 -35 -17 -38 -17 -50 0 -8 10 -13 13 -13 5 0 -7 -6 -9 -12 -6 -7 4 -4
-1 6 -9 23 -18 14 -21 -15 -5 -19 10 -20 9 -9 -11 8 -15 8 -20 1 -16 -6 4 -16
4 -22 0 -8 -5 -8 -8 0 -13 7 -4 -6 -16 -30 -29 -23 -13 -44 -20 -47 -18 -2 3
12 13 32 22 28 14 33 20 25 31 -9 10 -8 13 5 13 9 0 16 5 16 10 0 13 -17 13
-25 0 -4 -6 -10 -8 -15 -5 -4 3 -7 -3 -6 -12 0 -9 -6 -18 -14 -20 -13 -4 -13
-3 0 6 13 9 13 11 -2 11 -10 0 -18 -4 -18 -10 0 -5 -3 -9 -7 -8 -15 4 -53 -14
-48 -22 3 -4 -7 -11 -22 -15 -15 -3 -33 -14 -40 -23 -7 -9 -13 -12 -13 -6 0
16 9 23 134 98 75 46 101 66 85 66 -13 0 -70 -29 -125 -64z m559 -22 c14 -14
27 -35 29 -47 10 -62 -66 -224 -241 -514 -50 -84 -91 -154 -91 -156 0 -2 11
-2 25 1 14 2 25 7 25 11 0 3 10 12 22 20 12 8 3 -9 -23 -40 -63 -75 -108 -150
-135 -222 l-23 -62 0 52 c-1 36 7 70 24 107 27 60 33 92 11 64 -18 -25 -40
-24 -27 1 6 10 7 22 3 27 -4 5 -3 6 2 2 19 -15 251 340 324 495 71 150 46 131
-36 -28 -80 -156 -158 -281 -244 -394 -67 -88 -58 -69 28 59 128 190 246 402
238 428 -4 13 -3 14 4 4 7 -11 11 -10 16 4 4 9 2 22 -4 28 -8 8 -9 6 -4 -8 5
-13 4 -17 -4 -12 -13 8 -31 -23 -24 -43 3 -8 0 -11 -7 -7 -7 5 -9 1 -4 -10 5
-13 3 -15 -7 -9 -9 5 -11 4 -6 -3 4 -7 -6 -31 -22 -54 -16 -24 -58 -90 -92
-147 -34 -57 -85 -138 -112 -180 l-51 -76 7 45 c4 25 11 74 15 110 6 46 22 93
53 155 55 112 84 225 73 280 -8 37 -9 34 -16 -45 -4 -47 -12 -96 -17 -110 -10
-22 -11 -19 -7 20 6 56 3 49 -30 -70 -14 -52 -30 -99 -34 -103 -9 -9 16 104
44 200 15 48 19 55 26 38 6 -14 7 -8 3 19 -3 22 -12 49 -20 60 -18 27 -18 66
1 66 7 0 19 -8 24 -17 8 -15 11 -15 12 -3 1 8 0 24 -1 34 -1 16 3 18 31 12 18
-3 36 -11 40 -17 3 -6 9 1 13 15 5 21 12 26 39 26 17 0 39 5 47 10 29 18 76
11 103 -16z m244 -206 c11 -12 13 -18 5 -18 -7 0 -10 -5 -7 -10 4 -6 6 -49 6
-96 -1 -75 1 -85 14 -74 8 7 26 10 40 6 26 -7 35 -24 13 -23 -7 0 -22 -1 -33
-2 -17 -3 -17 -4 5 -11 24 -8 24 -8 3 -9 -13 -1 -23 -7 -23 -15 0 -17 -24 -28
-45 -20 -13 5 -20 24 -16 47 2 11 -27 9 -34 -3 -4 -6 -56 -10 -124 -10 -79 0
-121 -4 -131 -12 -12 -11 -12 -10 -1 5 7 9 22 17 32 17 11 0 19 7 19 15 0 17
2 18 24 9 9 -3 13 -10 10 -15 -3 -5 7 -9 23 -8 25 0 26 1 7 9 -18 7 -54 50
-54 65 0 3 7 5 15 5 18 0 18 7 3 64 -10 38 -9 48 5 69 20 31 39 36 144 34 64
-2 86 -6 100 -19z m640 -205 c0 -10 -3 -20 -7 -23 -12 -9 -58 -118 -52 -125 3
-3 12 5 20 17 7 13 11 16 9 8 -3 -11 2 -16 16 -17 15 -2 17 1 8 10 -6 6 -11
17 -11 25 0 21 29 45 45 38 25 -9 29 -35 12 -77 -9 -22 -11 -41 -6 -45 5 -3 9
1 9 9 0 20 37 60 49 52 7 -4 5 -15 -6 -32 -9 -14 -18 -44 -19 -67 l-3 -41 12
39 c7 22 18 41 25 44 14 4 16 -14 2 -23 -13 -8 -13 -55 -1 -55 6 0 8 9 6 20
-6 29 32 62 56 50 27 -15 30 -25 15 -60 -7 -18 -15 -27 -18 -20 -2 7 -12 14
-21 16 -24 3 -25 -84 -1 -93 15 -5 15 -7 0 -15 -9 -5 -16 -19 -16 -31 -1 -29
-25 -72 -41 -72 -8 0 -19 -10 -25 -23 -11 -23 -29 -31 -29 -13 0 5 -3 12 -7
15 -5 3 -6 3 -3 0 8 -11 -15 -44 -31 -44 -21 0 -13 -34 9 -38 13 -3 17 3 17
23 0 14 4 24 9 21 5 -3 5 -21 1 -41 -5 -20 -4 -33 1 -29 5 3 9 12 9 20 0 8 4
14 10 14 10 0 3 -27 -13 -47 -13 -18 -25 -16 -30 5 -4 16 -5 16 -6 -1 -1 -10
9 -21 23 -27 56 -21 37 -48 -22 -30 -102 31 -232 75 -232 80 1 22 24 32 73 33
47 1 54 3 47 16 -9 18 4 61 19 61 5 0 8 -14 7 -31 -1 -22 6 -35 21 -46 20 -13
23 -13 33 8 11 20 10 21 -6 15 -18 -6 -18 -6 0 9 12 9 17 22 13 35 -3 11 -1
18 4 14 5 -3 9 -2 10 3 0 4 2 16 4 26 3 13 -4 17 -29 17 -46 0 -69 21 -69 61
0 19 -4 39 -9 45 -5 8 -2 14 9 19 16 6 15 8 -6 16 -18 7 -27 6 -33 -3 -5 -9
-8 -9 -8 -1 0 6 -3 20 -6 30 -5 15 -4 16 6 3 9 -12 11 -7 6 24 -5 36 -4 37 10
20 12 -14 12 -11 -1 10 -17 28 -16 30 21 103 38 75 73 113 104 113 9 0 17 -8
17 -17z m-418 -101 c1 -22 -3 -31 -10 -26 -6 3 -8 15 -6 26 3 11 3 26 0 34
-11 29 -18 12 -19 -49 0 -35 -7 -74 -16 -90 l-15 -27 -19 25 -19 25 -17 -33
c-9 -17 -17 -39 -18 -48 0 -9 -8 -25 -18 -36 -14 -16 -27 -20 -61 -17 -24 2
-55 11 -68 19 -17 12 -28 13 -43 5 -11 -6 -20 -7 -20 -2 0 14 43 33 69 30 13
-2 26 3 28 10 5 13 -9 12 -69 -3 -15 -4 -33 -3 -40 1 -7 5 -23 7 -35 6 -30 -4
-36 12 -13 33 13 11 20 14 20 6 0 -7 5 -9 10 -6 6 4 8 10 5 14 -2 5 4 25 14
46 l18 37 37 -50 38 -49 51 5 c29 2 64 11 78 18 26 13 69 81 69 109 0 7 12 23
27 35 26 20 28 20 34 3 4 -10 8 -33 8 -51z"/>
<path d="M0 1156 c0 -14 2 -26 5 -26 3 0 47 -11 99 -25 52 -14 115 -25 141
-25 32 0 60 -8 90 -25 l43 -26 4 29 4 29 -175 43 c-97 23 -184 44 -193 47 -14
3 -18 -2 -18 -21z"/>
<path d="M0 959 c0 -111 3 -151 12 -154 124 -39 190 -55 229 -55 36 0 55 -6
78 -26 l31 -26 30 26 c38 32 88 41 134 26 34 -11 85 -59 87 -83 1 -7 4 1 8 18
4 18 18 37 38 50 18 11 32 28 33 38 0 13 8 17 35 17 28 0 35 -4 35 -20 0 -11
6 -20 14 -20 8 0 27 -10 41 -23 l26 -22 -25 -24 c-25 -24 -25 -24 -5 -40 11
-9 24 -31 27 -48 7 -31 7 -31 30 -13 l23 19 -21 21 c-28 28 -26 75 5 105 13
14 29 25 35 25 5 0 10 9 10 20 0 17 7 20 40 20 32 0 40 -4 40 -18 0 -11 14
-25 35 -35 42 -20 44 -39 9 -61 l-25 -17 25 -20 c20 -16 26 -30 26 -59 0 -33
-6 -44 -35 -67 -19 -15 -35 -36 -35 -45 0 -14 -9 -18 -40 -18 -33 0 -40 3 -40
20 0 12 -13 25 -35 36 -20 9 -38 20 -40 25 -9 13 -85 -43 -85 -63 0 -14 -8
-18 -35 -18 -29 0 -35 4 -35 20 0 11 -8 23 -17 27 -10 3 -31 15 -46 26 l-28
19 27 29 c27 29 28 30 9 47 -17 15 -17 15 -6 0 10 -14 9 -20 -11 -40 -13 -13
-26 -22 -30 -21 -4 2 -5 -4 -2 -12 9 -22 -54 -55 -105 -55 -26 0 -57 8 -76 20
-32 20 -65 72 -65 103 0 9 -4 18 -9 21 -5 3 -7 19 -5 34 2 19 -4 37 -17 51
-17 18 -31 21 -93 21 l-74 0 0 -42 c-1 -27 -6 -45 -17 -51 -13 -7 -14 -11 -3
-25 10 -12 10 -14 1 -8 -8 4 -13 2 -13 -4 0 -8 10 -9 29 -5 16 3 32 2 35 -3 3
-5 -2 -9 -11 -8 -21 1 -30 -33 -11 -45 9 -6 9 -9 1 -9 -7 0 -10 -7 -6 -17 5
-12 3 -14 -8 -8 -8 5 -11 5 -6 -1 10 -10 57 -13 57 -4 0 3 -6 12 -12 19 -10
11 -10 13 0 7 8 -5 12 0 12 13 0 13 -5 19 -14 15 -8 -3 -17 -1 -21 5 -3 7 0 8
9 5 9 -4 18 1 22 10 3 9 16 16 28 16 37 0 66 12 59 24 -4 6 1 5 10 -3 14 -11
20 -11 32 -1 10 8 15 9 15 2 0 -6 -7 -15 -14 -19 -12 -7 -10 -16 15 -56 16
-26 29 -49 29 -52 0 -3 -20 -5 -44 -5 -42 0 -46 2 -70 45 -15 25 -31 45 -36
45 -6 0 -10 -20 -10 -45 l0 -45 -40 0 -40 0 0 50 c0 28 -4 50 -9 50 -16 0 -19
51 -4 65 19 19 13 87 -7 92 -13 4 -13 3 0 -7 13 -10 12 -11 -3 -6 -10 3 -24 6
-30 6 -8 0 -7 3 1 9 10 6 7 10 -13 15 -14 4 -30 4 -35 1 -6 -3 -10 -164 -10
-385 l0 -380 1125 0 1125 0 -2 352 -3 352 -115 27 c-115 26 -461 107 -745 174
-322 76 -409 95 -412 91 -3 -2 30 -12 71 -22 42 -10 74 -19 72 -22 -3 -2 -39
4 -80 14 -50 11 -80 14 -86 8 -6 -6 126 -43 375 -104 212 -52 385 -98 385
-103 0 -5 -6 -7 -13 -4 -12 4 -229 58 -577 143 -80 19 -153 37 -162 40 -24 7
-22 -5 5 -39 19 -23 46 -33 153 -62 152 -40 181 -50 168 -58 -5 -3 -34 3 -63
14 -30 10 -58 16 -62 13 -5 -3 -15 -2 -21 3 -14 8 -16 9 -63 18 -16 3 -39 8
-50 12 -18 5 -18 5 -2 -21 l17 -26 -53 0 c-52 0 -55 2 -82 40 -15 22 -31 40
-34 40 -4 0 -6 -17 -6 -37 0 -38 -1 -38 -42 -41 l-43 -3 0 50 c0 37 -4 51 -14
51 -8 0 -17 7 -20 16 -3 8 -10 12 -16 9 -5 -3 -10 -2 -10 2 0 9 -14 12 -70 16
-16 1 -30 6 -30 10 0 5 -4 6 -9 2 -5 -3 -12 -1 -16 5 -10 16 -25 1 -25 -24 0
-50 72 -75 107 -37 18 20 19 20 51 -1 17 -11 32 -24 32 -29 0 -20 -49 -58 -90
-69 -52 -14 -92 -6 -130 27 -41 34 -53 59 -61 123 -5 46 -6 37 -8 -47 l-1
-103 -45 0 -45 0 0 104 c0 59 -4 108 -10 111 -6 4 -10 -6 -10 -24 0 -17 -10
-42 -24 -58 l-24 -29 29 -47 c16 -26 29 -49 29 -52 0 -3 -22 -5 -48 -5 -47 0
-48 1 -77 50 -16 28 -33 50 -37 50 -4 0 -8 -22 -8 -50 l0 -50 -40 0 -40 0 0
50 c0 38 -4 50 -15 50 -11 0 -15 12 -15 45 0 34 4 45 15 45 13 0 16 11 14 50
-3 49 -3 50 -32 45 -20 -4 -26 -2 -21 6 4 7 2 10 -7 7 -8 -3 -24 -1 -36 3
l-23 9 0 -151z m2100 -604 l0 -135 -205 0 -205 0 0 135 0 135 205 0 205 0 0
-135z"/>
<path d="M1700 445 l0 -35 195 0 195 0 0 35 0 35 -195 0 -195 0 0 -35z"/>
<path d="M1700 270 l0 -40 195 0 195 0 0 40 0 40 -195 0 -195 0 0 -40z"/>
<path d="M586 1067 c-15 -5 -23 -13 -19 -20 4 -6 0 -8 -9 -4 -17 6 -53 -25
-41 -36 3 -4 1 -7 -6 -7 -7 0 -10 -4 -6 -10 3 -5 13 -6 21 -3 12 4 15 0 13
-18 -2 -13 0 -30 4 -36 5 -8 4 -13 -2 -13 -11 0 -15 12 -12 42 3 26 -33 15
-37 -12 -2 -12 1 -20 6 -16 5 3 13 -1 16 -10 3 -8 2 -12 -4 -9 -16 10 -12 -23
6 -51 10 -14 29 -31 44 -39 28 -15 124 -15 137 -1 4 5 -4 6 -19 2 -15 -3 -29
-2 -32 3 -7 11 28 43 38 34 3 -4 -3 -12 -14 -18 -20 -11 -19 -11 12 -11 19 1
42 8 52 17 16 15 15 17 -10 33 -24 17 -27 17 -45 0 -23 -21 -68 -21 -106 0
-15 8 -22 15 -15 16 9 0 10 5 3 18 -5 10 -9 27 -8 37 3 28 57 67 85 62 16 -3
22 0 18 9 -3 8 0 11 10 7 10 -4 13 0 8 13 -5 18 -5 18 6 1 6 -9 17 -14 23 -11
7 4 8 3 4 -2 -5 -5 -14 -9 -20 -9 -18 0 -14 -28 4 -30 21 -3 53 21 44 34 -11
18 -66 43 -81 37 -8 -3 -12 -2 -9 4 7 11 -22 9 -59 -3z"/>
<path d="M132 1024 c0 -24 4 -41 8 -39 4 2 7 -2 7 -9 0 -8 -9 -11 -24 -8 -19
4 -23 0 -23 -22 0 -15 7 -29 15 -32 11 -4 15 -21 15 -55 0 -48 1 -49 31 -49
31 0 31 0 27 50 -1 28 1 50 5 50 5 0 5 4 2 10 -4 6 1 7 11 3 10 -4 15 -2 11 3
-3 6 4 11 16 11 20 2 20 1 4 -8 -16 -10 -16 -12 0 -39 9 -16 21 -26 26 -23 6
3 7 1 3 -5 -14 -22 17 -52 51 -50 18 1 33 3 33 5 0 1 -12 22 -28 46 -22 35
-33 43 -55 43 -15 -1 -27 2 -27 7 0 5 12 7 26 4 19 -3 24 -1 19 11 -4 12 -3
13 9 3 12 -10 17 -8 29 11 14 22 21 84 11 100 -3 4 -17 2 -32 -3 -36 -14 -73
-18 -66 -7 3 5 11 8 17 6 20 -3 58 13 52 23 -9 14 -55 11 -55 -3 0 -10 -2 -10
-8 -1 -4 7 -30 12 -60 11 l-52 0 2 -44z"/>
<path d="M400 1061 c8 -6 18 -7 24 -4 5 3 6 1 2 -5 -4 -6 -12 -9 -20 -6 -15 6
-18 -25 -3 -43 6 -9 6 -13 -1 -13 -5 0 -9 -13 -8 -30 0 -16 4 -30 8 -30 5 0 8
-9 8 -21 0 -11 -4 -18 -8 -15 -4 2 -8 -15 -8 -40 0 -43 1 -44 33 -44 l34 0 -2
130 -1 130 -36 0 c-27 0 -33 -3 -22 -9z"/>
<path d="M791 1023 c3 -39 0 -48 -14 -51 -11 -2 -17 -13 -17 -33 0 -18 5 -28
13 -26 8 1 13 -15 15 -50 3 -52 4 -53 34 -53 30 0 30 1 26 44 -6 60 1 70 38
55 16 -7 38 -11 49 -11 l20 2 -20 -9 c-11 -5 -24 -5 -29 0 -6 5 -15 9 -20 9
-6 0 -2 -7 8 -15 11 -8 16 -15 12 -15 -4 0 2 -13 14 -30 18 -25 27 -30 60 -28
22 1 37 5 34 10 -4 5 -12 7 -20 4 -8 -3 -11 0 -7 9 3 8 -12 37 -32 65 -20 27
-34 54 -30 60 3 5 0 7 -9 4 -12 -4 -13 -12 -5 -32 9 -25 8 -26 -6 -8 -21 27
-19 33 13 50 23 12 92 78 92 89 0 1 -15 4 -34 5 -34 3 -63 -18 -51 -37 3 -6 0
-8 -8 -5 -8 3 -18 0 -22 -5 -3 -6 -10 -9 -15 -6 -4 3 -7 -3 -6 -12 0 -9 -5
-18 -11 -20 -9 -3 -13 8 -14 34 -1 21 -1 41 0 46 0 4 -13 7 -30 7 -30 0 -30
-1 -28 -47z"/>
<path d="M694 763 c4 -9 -1 -17 -14 -20 -11 -3 -17 -9 -14 -14 3 -5 -4 -9 -15
-9 -24 0 -25 -4 -11 -31 7 -11 7 -19 1 -19 -5 0 -12 6 -14 13 -3 6 -5 -1 -4
-17 2 -33 20 -44 45 -25 14 11 13 9 -2 -9 -20 -23 -9 -31 12 -10 9 9 15 9 25
-1 10 -10 8 -11 -7 -5 -13 5 -17 4 -12 -4 4 -7 20 -12 36 -12 56 0 49 -45 -8
-53 -25 -3 -42 0 -52 11 -13 13 -13 14 0 7 12 -6 13 -5 2 6 -10 11 -16 10 -34
-8 l-21 -22 34 -20 c41 -25 56 -27 38 -4 -13 15 -12 15 8 4 13 -6 26 -23 29
-36 7 -28 26 -34 23 -7 -3 33 1 40 20 35 21 -5 61 38 61 66 0 39 -68 82 -105
67 -9 -3 -13 -2 -10 4 6 9 -17 15 -40 10 -5 -1 -7 2 -3 6 4 4 3 13 -3 20 -10
13 6 32 18 20 4 -3 1 -6 -6 -6 -7 0 -9 -5 -6 -10 5 -8 11 -8 20 0 16 13 85 3
85 -12 0 -6 6 -5 15 2 21 17 19 37 -4 50 -25 13 -41 13 -41 -1 0 -6 6 -9 13
-6 8 3 14 -1 14 -8 0 -10 -6 -11 -16 -6 -9 5 -24 7 -34 6 -9 -2 -15 1 -11 6 3
5 10 7 15 4 9 -6 10 -5 14 31 2 17 -3 22 -22 22 -17 0 -23 -5 -19 -15z"/>
<path d="M922 755 c3 -14 1 -28 -5 -32 -6 -3 -7 -1 -3 5 9 15 1 15 -25 1 -24
-13 -42 -55 -34 -80 7 -21 64 -49 100 -49 31 0 54 -27 31 -36 -14 -5 -14 -9
-4 -23 11 -14 11 -14 -2 -4 -19 14 -52 20 -67 10 -6 -4 -15 -2 -19 4 -4 8 -3
9 4 5 7 -4 12 -3 12 2 0 16 -31 23 -46 11 -17 -14 -18 -29 -3 -29 5 0 8 4 4 9
-3 5 0 13 7 17 7 4 10 4 6 -1 -4 -4 -2 -15 5 -23 10 -13 9 -14 -2 -8 -9 6 -12
4 -9 -5 3 -8 14 -15 26 -17 21 -3 26 -12 23 -39 -1 -8 9 -13 24 -13 25 0 34
14 15 25 -5 3 -10 1 -10 -6 0 -7 -3 -9 -7 -6 -3 4 1 15 10 25 10 10 14 22 10
26 -4 4 4 3 19 -3 21 -8 29 -6 45 12 21 24 32 84 14 73 -7 -4 -9 -1 -5 8 4 11
-8 19 -47 30 -29 9 -57 16 -63 16 -18 0 -38 38 -24 46 7 4 8 3 4 -4 -4 -7 -3
-12 3 -12 5 0 13 5 16 10 4 6 10 8 15 5 5 -3 24 1 42 10 l33 16 -25 -21 -25
-21 30 6 c21 4 25 3 11 -3 -17 -7 -17 -9 -4 -15 9 -3 23 2 32 12 19 21 10 32
-37 50 -15 6 -27 17 -27 26 0 10 -9 15 -26 15 -23 0 -26 -3 -22 -25z"/>
<path d="M398 723 c-15 -9 -32 -27 -39 -40 -10 -19 -9 -26 7 -45 10 -13 12
-17 4 -10 -8 6 -17 12 -21 12 -9 0 -1 -57 11 -81 15 -28 69 -59 103 -59 33 0
92 23 102 41 6 8 4 10 -6 5 -8 -4 -4 1 8 12 12 11 25 32 29 48 4 16 3 26 -1
22 -4 -4 -18 -3 -31 2 -21 8 -24 7 -24 -11 0 -17 3 -19 14 -10 9 8 16 8 20 2
7 -11 -2 -18 -24 -17 -8 1 -27 -12 -42 -28 -23 -24 -26 -32 -15 -44 10 -13 9
-15 -6 -9 -10 4 -20 7 -23 7 -2 0 -1 6 2 14 6 15 -22 30 -38 19 -6 -3 -9 -2
-5 3 3 5 -1 17 -8 27 -10 14 -15 15 -21 6 -4 -7 -2 -15 4 -17 16 -5 15 -19 -1
-25 -14 -5 -14 12 -1 82 5 23 3 32 -4 27 -6 -3 -13 -2 -17 3 -3 6 4 8 17 6 12
-3 30 3 40 11 10 10 28 15 46 12 30 -4 35 4 18 31 -8 12 -11 11 -22 -3 -7 -10
-17 -15 -23 -12 -5 4 -17 -4 -25 -16 -9 -12 -16 -17 -16 -10 0 6 -8 12 -17 12
-15 0 -14 2 3 15 12 8 31 12 44 10 18 -3 20 -2 10 10 -15 19 -19 18 -52 -2z"/>
</g>
</svg>
